<svg xmlns="http://www.w3.org/2000/svg" width="437.95" height="388.048" viewBox="200.469 531.731 437.95 388.048"><path fill="#FFF" d="M260.007 740.381L421.69 604.886l152.289 135.495v166.764s.569 12.219-11.583 12.219H454.358l.153-90.191s1.073-14.934-16.027-14.934h-45.808c-14.474 0-12.919 14.934-12.919 14.934l-.153 90.455s-98.534.152-110.402.152c-9.591 0-9.195-9.787-9.195-9.787V740.381zm-59.538-12.591s13.707 25.29 43.661 0l178.895-151.348 167.748 150.385c34.662 25.027 47.646 0 47.646 0L423.024 531.731 200.469 727.79zm386.232-151.719h-43.157l.219 52.333 42.938 36.479v-88.812z"/></svg>