<svg xmlns="http://www.w3.org/2000/svg" viewBox="-3.5 -3.451 807.299 253.251"><path fill="#D1EFFA" stroke="#666" stroke-miterlimit="10" stroke-width="7" d="M396.501 246.3v-.4c.397-.5 1.1-.8 1.697-.699 2.9-.101 5.7-.101 8.603 0 .6 0 1.3.199 1.7.699v.4h-12z"/><path fill="#FFF" stroke="#666" stroke-miterlimit="10" stroke-width="7" d="M408.501 245.9c-4-.1-8-.1-12 0-5.5-.3-11-.5-16.5-.9-14.603-1.1-29.103-3.299-43.303-6.6-49.1-11.4-92.198-34.3-129.8-67.6-3.5-3.103-6.8-6.301-10.198-9.5-.802-.7-1.5-1.7-1.9-2.7-.6-1.399-.3-2.899.7-4s2.601-1.5 4-.899c.898.399 1.8.799 2.601 1.299 35.899 22.201 75.102 38.4 116.2 48 13.8 3.201 27.7 5.701 41.7 7.5 20.1 2.5 40.397 3.4 60.6 2.701 10.9-.301 21.7-1.301 32.5-2.701 25.2-3.199 50.1-8.897 74.2-16.897 12.7-4.2 25.1-9 37.2-14.603 1.8-1 4-1.299 6-.799 3.3.799 5.3 4.199 4.5 7.5-.103.399-.303.899-.5 1.299-.803 1.5-1.9 2.801-3.303 3.801-11.5 9-23.897 16.9-37 23.5-24.697 12.5-51.1 21.4-78.3 26.5-15.7 2.799-31.498 4.499-47.397 5.099zM260.4 43.2c2.5-1.5 5.102-3.1 7.802-4.5 7-3.6 14.8-5.4 22.698-5 5.7.3 10.899 1.9 14.899 6.1 3.801 3.9 5.199 8.7 5.601 13.9.103 1.1.103 2.2.103 3.4v51.8c0 4.5-.603 5.1-5.103 5.1h-12.2c-.802 0-1.602 0-2.4-.1-1.199-.1-2.199-1.1-2.399-2.3-.198-1.1-.198-2.2-.198-3.3V62c.1-1.9-.102-3.7-.602-5.5-.801-3.1-3.601-5.3-6.801-5.5-5.899-.4-11.8.8-17.199 3.3-.801.2-1.301 1-1.2 1.8v52.6c0 1 0 1.9-.198 2.9 0 1.4-1.102 2.4-2.5 2.4-1.5.1-3 .1-4.602.1H245.5c-3.7 0-4.5-.9-4.5-4.6V62.2c0-1.7-.102-3.5-.5-5.2-.7-3.4-3.602-5.8-7-6-6-.4-12.102.8-17.5 3.4-.8.2-1.3 1.1-1.102 1.9v53.3c0 3.7-.8 4.5-4.5 4.5H197c-3.5 0-4.399-1-4.399-4.4V40.3c0-.8.102-1.6.3-2.4.399-1.2 1.602-1.9 2.802-1.9h12.5c1.8 0 2.898 1.1 3.5 2.8.5 1.4.8 2.7 1.3 4.2 1 0 1.601-.7 2.3-1.1 5.5-3.4 11.301-6.3 17.801-7.5 5-1 10-1 15 0 4.699 1 8.899 3.8 11.602 7.8.198.3.398.5.6.7-.106.1-.006.1.094.3zM467.698 93c.603-2 1.2-3.9 1.803-5.9 4.6-15.5 9.197-30.9 13.8-46.4l.6-1.8c.5-1.8 2.2-2.9 4-2.9h15.2c3.8 0 4.6 1.1 3.3 4.7l-6 15.9c-6.7 17.4-13.397 34.9-20.1 52.3-.2.6-.5 1.2-.7 1.8-.7 2.1-2.8 3.5-5 3.3-4.4-.1-8.8-.1-13.2 0-3.1.1-4.9-1.3-6-4.1-2.5-6.6-5.1-13.3-7.6-19.9-6-15.7-12.103-31.4-18.103-47.2-.6-1.2-1-2.6-1.3-3.9-.3-2 .4-3 2.4-3 5.697-.1 11.397 0 17 0 2.397 0 3.5 1.6 4.1 3.7 1.1 3.8 2.2 7.7 3.4 11.5 4.1 13.9 8.1 27.9 12.198 41.8-.096.1.004.1.202.1zM112.6 47c.699-.2 1.3-.6 1.699-1.2 1.801-1.8 3.7-3.5 5.7-5.1 5.2-4 11.7-6 18.2-5.5 2.6.1 3.5.9 3.698 3.4.2 3.4.102 6.9.102 10.3.101 1.4 0 2.7-.2 4.1-.399 1.8-1.1 2.5-2.899 2.7-1.398.1-2.698 0-4.101-.1-6.699-.6-13.199.7-19.5 2.8-1.399.5-1.399 1.5-1.399 2.6v48c0 .9 0 1.7-.101 2.6-.1 1.3-1.1 2.3-2.399 2.3-.698.1-1.5.1-2.198.1h-13c-.7 0-1.5 0-2.2-.1-1.3-.1-2.3-1.2-2.399-2.5-.101-.8-.101-1.6-.101-2.4V41c0-4.6.5-5.1 5.101-5.1h9.602c2.6 0 3.8.9 4.5 3.4.696 2.5 1.295 5 1.895 7.7z"/><path fill="#FFF" stroke="#666" stroke-miterlimit="10" stroke-width="7" d="M580.4 148.4c6.603.2 13.103.6 19.5 2.301 1.8.5 3.5 1.102 5.2 1.899 2.3.899 3.8 3.101 4.1 5.5.4 2.8.5 5.7.303 8.601C608.198 183.8 602.9 200.3 594.1 215c-3.2 5.301-7.1 10.103-11.6 14.301-.9.9-2 1.602-3.2 2-1.9.5-3.103-.5-3.2-2.398.1-1 .3-2 .7-3 3.5-9.398 6.897-18.697 9.6-28.398 1.6-5.299 2.7-10.699 3.4-16.199.2-2 .3-4 .1-6-.1-3.4-2.3-6.301-5.6-7.301-3.103-1-6.3-1.602-9.603-1.799-9.197-.4-18.397 0-27.5 1.197l-12.1 1.5c-1.3.102-2.5 0-3.2-1.197-.7-1.201-.397-2.4.3-3.603.803-1.103 1.803-2.103 3-2.8 7.4-5.303 15.7-8.5 24.5-10.602C566.5 149.3 573.4 148.6 580.4 148.4zM538.5 75v36c-.199 2-1.102 2.9-3.102 3-5.398.1-10.7.1-16.1 0-2 0-2.9-1-3.103-2.9-.1-.6-.1-1.3-.1-1.9V40c.1-3.1.898-4 4-4h14.398c3.102 0 4 .9 4 4v35h.007zm-386.9-.2V39.3c.102-2.4 1-3.3 3.399-3.4 5.2-.1 10.398-.1 15.601 0 2.3 0 3 .7 3.199 3 .101.9.101 1.7.101 2.6v66.6c0 1.1-.101 2.2-.198 3.3-.102 1.3-1.102 2.2-2.4 2.3-.6.1-1.1.1-1.699.1h-13.898c-.5 0-.9 0-1.4-.1-1.399-.1-2.6-1.2-2.699-2.6-.101-.8-.101-1.6-.101-2.4.095-11.1.095-22.5.095-33.9zM163.2.1c1.6-.1 3.198.2 4.698.7 5.399 1.8 8.2 6.5 7.7 12.6-.398 5.2-4.301 9.4-9.5 10.2-2.2.4-4.5.4-6.7 0-5.698-1.1-9.898-5.3-9.5-12.5C150.5 4 155.2.1 163.2.1zm364.2 0c2-.2 4 .2 5.9 1 3.897 1.5 6.6 5.1 6.8 9.3.8 9.1-5.3 13.7-13.4 13.5-1.1 0-2.197-.2-3.3-.4-6.2-1.5-9.397-6.3-8.8-13.2.5-5.5 4.8-9.6 10.7-10.1.701-.1 1.398-.2 2.1-.1zM76.7 66.6c-.4-5.2-1.802-10.3-3.9-15-4.1-8.6-10.4-14.9-20-17.1-11-2.4-20.899 0-29.899 6.7-.601.6-1.3 1.1-2.101 1.5-.2-.1-.4-.2-.4-.3-.3-1-.5-2-.8-3-.8-2.5-1.8-3.4-4.5-3.4-3 0-6.1.1-9.1 0-2.3-.1-4.399.2-6 2 0 35 0 70.1.1 105 1.3 2.103 3.3 2.5 5.602 2.4 3.6-.1 7.198 0 10.8 0 6.3 0 6.3 0 6.3-6.199v-28.5c0-.7-.3-1.5.4-2.1 5 3.9 11.1 6.3 17.398 6.9 8.8.9 16.8-1.3 23.5-7.3C69 103.7 72.6 97.9 74.5 91.5c2.7-8.2 2.9-16.5 2.2-24.9zM52.8 87.3c-.699 3.1-2.3 5.9-4.6 8-2.6 2.2-5.8 3.5-9.2 3.5-5.1.3-10.1-.8-14.6-3.2-1.101-.5-1.8-1.6-1.698-2.8V74.7c0-6 .1-12 0-18-.102-1.4.698-2.6 2-3.1C30.2 51 35.9 49.8 41.9 51c4.2.6 7.802 3.3 9.5 7.2 1.5 3.2 2.399 6.7 2.602 10.2.598 6.4.598 12.8-1.202 18.9z"/><path fill="#232F3E" stroke="#666" stroke-miterlimit="10" stroke-width="7" d="M800.1 82.2s0-.1 0 0c0-.1 0-.1 0 0z"/><path fill="#FFF" stroke="#666" stroke-miterlimit="10" stroke-width="7" d="M800.198 68.8v.4c-.397-.4-.6-1-.397-1.5v-.8s0-.1.1-.1h-.1v-1H800c0-.1-.102-.1-.102-.2-.2-1.9-.6-3.8-1.1-5.6-3.7-13.2-12-21.9-25.5-25.3-6.301-1.5-12.7-1.7-19.103-.7-13.5 2-23.198 9.2-27.897 22-4.603 12.2-4.5 25.6.1 37.8 4 11.1 12 18.1 23.5 21 6.102 1.5 12.5 1.9 18.8 1 21-2.5 29.7-18.4 31.103-32.2h-.103v-1.4c-.1-.6-.198-1.1.4-1.5v.2c0-.1.1-.3.2-.4V69c.003-.1-.1-.1-.1-.2zm-24 19c-.6 2.1-1.5 4-2.8 5.8-2.2 3.1-5.7 5.1-9.5 5.4-1.898.2-3.8.2-5.7-.2-4.198-.8-7.698-3.6-9.397-7.5-1.5-3.1-2.4-6.5-2.7-9.9-.5-5.9-.601-11.8.8-17.6.5-2.3 1.5-4.6 2.7-6.6 2.2-3.6 6-5.9 10.2-6.2 1.897-.2 3.8-.2 5.699.2 4 .8 7.301 3.4 9.101 7.1 1.7 3.5 2.7 7.4 2.899 11.3.101 1.8.198 3.6.101 5.4.299 4.4-.201 8.7-1.403 12.8zM624.9.8h-13.897c-3.803 0-4.5.7-4.5 4.5v32.4c0 .7.3 1.4-.2 2.1-.9-.1-1.4-.7-2.103-1.1-10.397-6.1-21.3-7.2-32.3-2.1-7.7 3.6-12.5 10.1-15.6 17.8-3 7.4-3.7 15.2-3.5 23.1 0 7.4 1.7 14.7 5 21.3 3.8 7.3 9.3 12.9 17.3 15.3 10.9 3.4 21.1 1.7 30.4-5.2.697-.4 1.1-1.1 2-1.3.5 1.1.897 2.3 1.1 3.5.4 1.6 1.8 2.7 3.5 2.7h2.4c3.6 0 7.1.1 10.6 0 2.8 0 3.6-.9 3.7-3.8V4.6c-.102-3.1-.9-3.8-3.9-3.8zm-18.3 73.6v18.2c.2 1.2-.5 2.3-1.6 2.8-4.803 2.7-10.303 3.8-15.7 3-4.603-.5-8.603-3.3-10.7-7.4-1.6-3.2-2.5-6.6-2.8-10.1-.8-6.3-.3-12.7 1.2-18.8.5-1.7 1.1-3.3 2-4.9 2.1-3.9 6.1-6.4 10.5-6.7 5.3-.5 10.6.5 15.397 2.7 1.2.4 1.9 1.6 1.8 2.9-.196 6.2-.097 12.2-.097 18.3zm-258.599 6.9c7.5 1.4 15.197 1.5 22.697.3 4.4-.6 8.603-1.9 12.5-4 4.5-2.6 7.803-6.2 9.2-11.2 3.5-12.6-1.897-25.3-15-30-6.397-2.1-13.2-2.8-19.897-1.9-15.803 1.8-26.101 10.5-30.803 25.6-3.3 10.3-2.897 20.8-.197 31.2 3.5 13.3 12.3 21.2 25.6 24 7.6 1.7 15.3 1.4 22.9.2 4-.7 8-1.7 11.8-3.2 2.3-.9 3.5-2.3 3.397-4.9-.1-2.4 0-4.9 0-7.4 0-3-1.198-3.9-4.1-3.2-2.9.7-5.7 1.3-8.602 1.9-6.198 1.3-12.601 1.3-18.801.2-8.5-1.7-14-9-13.5-18 .905.1 1.905.2 2.806.4zm-2.5-15.3c.3-2.4 1-4.7 1.897-6.9 3-7.3 9.3-9.8 15.7-9.4 1.8.1 3.6.5 5.3 1.2 2.603 1.1 4.3 3.5 4.603 6.3.3 1.7.197 3.5-.303 5.2-1.197 3.6-4.1 5.1-7.6 5.8-2.101.5-4.3.7-6.5.5-3.9 0-7.9-.3-11.8-.9-1.497-.2-1.497-.2-1.297-1.8zm339.8 16.3c5.8-.4 11.6-1.5 16.8-4.3 5.3-2.6 9-7.5 10.1-13.3.7-3.6.7-7.4-.1-11-2.1-9-7.8-14.6-16.4-17.5-4.8-1.5-9.897-2.1-14.897-1.9C664 34.7 651.198 43.2 646 60c-3.5 11.1-3 22.4.398 33.5 3.5 11.4 11.5 18.3 22.9 21.4 4.897 1.2 10 1.7 15 1.5 7.3-.1 14.6-1.5 21.5-4.1 2.897-1.1 3.6-2.1 3.6-5.2v-7.2c-.1-2.9-1.3-3.9-4.2-3.2-2.198.6-4.3 1.1-6.5 1.6-6.698 1.6-13.698 1.9-20.5.7-6.8-1.3-11.397-5.2-13.198-12-.5-2-.899-4-1.102-6.1.5 0 1 0 1.4.2 6.602 1.2 13.302 1.7 20.003 1.2zm-20.901-16c.7-3.9 1.603-7.7 4-10.9 3.7-4.9 8.8-6.3 14.603-5.7.5 0 .897.2 1.397.2 7 1.1 8.7 6.7 7.4 12.1-1 4-4.3 5.5-8 6.2-2 .4-4.103.6-6.2.5-4.1-.1-8.1-.4-12.1-1-.9-.1-1.302-.5-1.1-1.4z"/></svg>