<?xml version="1.0" encoding="utf-8"?>
<!-- Generator: Adobe Illustrator 15.1.0, SVG Export Plug-In . SVG Version: 6.00 Build 0)  -->
<!DOCTYPE svg PUBLIC "-//W3C//DTD SVG 1.1//EN" "http://www.w3.org/Graphics/SVG/1.1/DTD/svg11.dtd">
<svg version="1.1" id="Layer_1" xmlns="http://www.w3.org/2000/svg" xmlns:xlink="http://www.w3.org/1999/xlink" x="0px" y="0px"
	 width="437.424px" height="385.554px" viewBox="60.655 226.096 437.424 385.554"
	 enable-background="new 60.655 226.096 437.424 385.554" xml:space="preserve">
<path fill="#FFFFFF" stroke="#666666" stroke-width="11" stroke-miterlimit="10" d="M127.612,337.564
	c-11.313-11.314-17.539-26.312-17.539-42.272c0-15.96,6.228-30.959,17.539-42.27c3.421-3.423,8.945-3.423,12.365,0
	c3.422,3.42,3.422,9.03,0,12.453c-7.98,7.98-12.365,18.505-12.365,29.816c0,11.314,4.385,21.926,12.365,29.906
	c3.422,3.423,3.422,8.947,0,12.366c-1.665,1.753-3.944,2.543-6.138,2.543C131.558,340.107,129.279,339.317,127.612,337.564z
	 M292.051,325.198c7.983-7.98,12.366-18.592,12.366-29.906c0-11.313-4.385-21.839-12.366-29.816c-3.42-3.423-3.42-9.033,0-12.453
	c3.423-3.423,9.033-3.423,12.453,0c11.314,11.313,17.454,26.31,17.454,42.27c0,15.961-6.14,30.961-17.454,42.272
	c-1.754,1.753-3.946,2.543-6.229,2.543c-2.19,0-4.471-0.79-6.228-2.543C288.631,334.142,288.631,328.618,292.051,325.198z
	 M163.306,319.059c-13.067-13.067-13.067-34.378,0-47.534c3.422-3.421,8.946-3.421,12.366,0c3.42,3.42,3.42,8.946,0,12.453
	c-2.982,2.982-4.649,7.019-4.649,11.313c0,4.298,1.667,8.332,4.649,11.401c3.42,3.421,3.42,8.945,0,12.366
	c-1.667,1.753-3.946,2.542-6.14,2.542C167.252,321.601,165.061,320.812,163.306,319.059z M340.638,356.508
	c-1.753,1.667-3.948,2.54-6.229,2.54c-2.192,0-4.471-0.876-6.229-2.54c-3.421-3.423-3.421-9.034,0-12.455
	c26.924-26.835,26.924-70.6,0-97.523c-3.421-3.42-3.421-8.945,0-12.365c3.423-3.422,9.035-3.422,12.453,0
	C374.315,267.843,374.315,322.742,340.638,356.508L340.638,356.508z M256.358,306.693c3.068-3.069,4.734-7.104,4.734-11.401
	c0-4.295-1.667-8.331-4.734-11.313c-3.422-3.507-3.422-9.033,0-12.453c3.421-3.421,9.032-3.421,12.453,0
	c13.066,13.156,13.066,34.467,0,47.534c-1.753,1.753-4.034,2.542-6.229,2.542c-2.279,0-4.47-0.789-6.229-2.542
	C252.938,315.638,252.938,310.114,256.358,306.693L256.358,306.693z M103.845,344.052c3.42,3.421,3.42,9.032,0,12.455
	c-1.667,1.667-3.946,2.54-6.228,2.54c-2.193,0-4.473-0.876-6.14-2.54c-33.764-33.766-33.764-88.666,0-122.346
	c3.421-3.421,8.945-3.421,12.365,0c3.421,3.422,3.421,8.947,0,12.366C77.009,273.453,77.009,317.218,103.845,344.052
	L103.845,344.052z"/>
<g>
	<path fill="#FFFFFF" d="M145.501,606.158c-18.648,0-33.82-15.172-33.82-33.82v-49.198c0-18.648,15.172-33.82,33.821-33.82h56.249
		V350.457c0-7.865,6.399-14.264,14.264-14.264c7.864,0,14.262,6.398,14.262,14.264v138.862H458.77
		c18.646,0,33.817,15.172,33.817,33.82v49.198c0,18.648-15.171,33.82-33.817,33.82H145.501z M176.579,564.436
		c0.683,0.254,1.035,0.306,1.373,0.306c0.355,0,0.791-0.1,1.226-0.28c0.38-0.158,0.654-0.332,0.83-0.528l0.097-0.107l0.103-0.103
		c0.66-0.66,1.022-1.462,1.022-2.259c0-1.093-0.556-1.878-1.022-2.344c-0.55-0.564-1.353-0.857-2.254-0.857
		c-0.932,0-1.809,0.32-2.346,0.857c-0.619,0.619-0.934,1.409-0.934,2.344c0,0.865,0.323,1.646,0.934,2.257
		C176.018,564.131,176.3,564.311,176.579,564.436z M176.569,536.986c0.673,0.251,1.022,0.303,1.359,0.303
		c0.353,0,0.782-0.098,1.207-0.275c0.42-0.176,0.777-0.402,1.027-0.653c0.323-0.323,0.551-0.67,0.738-1.12
		c0.181-0.434,0.278-0.864,0.277-1.225c0-0.366-0.098-0.801-0.275-1.227l-0.055-0.136c-0.122-0.316-0.268-0.568-0.692-0.994
		c-0.581-0.583-1.417-0.933-2.233-0.933c-0.203,0-0.405,0.021-0.601,0.063l-0.228,0.044c-0.155,0.029-0.313,0.08-0.482,0.132
		c-0.158,0.093-0.328,0.2-0.538,0.341l-0.07,0.047c-0.079,0.063-0.156,0.134-0.236,0.203c-0.068,0.059-0.136,0.118-0.204,0.176
		c-0.367,0.427-0.559,0.703-0.642,0.919l-0.055,0.139c-0.125,0.302-0.191,0.725-0.191,1.225c0,0.499,0.066,0.922,0.191,1.223
		c0.073,0.175,0.266,0.542,0.75,1.115C176.054,536.722,176.344,536.885,176.569,536.986z"/>
	<path fill="#666666" d="M216.015,341.685c4.91,0,8.77,3.946,8.77,8.771v144.354H458.77c15.612,0,28.325,12.717,28.325,28.328
		v49.198c0,15.61-12.716,28.328-28.325,28.328H145.501c-15.61,0-28.328-12.718-28.328-28.328v-49.198
		c0-15.611,12.718-28.328,28.329-28.328h61.741V350.457C207.243,345.632,211.189,341.685,216.015,341.685 M177.928,542.781
		c1.135,0,2.272-0.261,3.324-0.7c1.048-0.438,2.011-1.053,2.798-1.842c0.872-0.875,1.485-1.841,1.922-2.894
		c0.438-1.05,0.698-2.19,0.697-3.335c0-1.14-0.259-2.28-0.697-3.333c-0.439-1.139-1.049-2.014-1.925-2.894
		c-1.606-1.61-3.827-2.55-6.125-2.55c-0.58,0-1.165,0.06-1.745,0.184c-0.525,0.089-1.05,0.265-1.662,0.438
		c-0.524,0.264-0.962,0.528-1.487,0.878c-0.434,0.264-0.873,0.703-1.31,1.053c-0.787,0.877-1.487,1.755-1.924,2.894
		c-0.438,1.054-0.612,2.193-0.612,3.333c0,1.139,0.174,2.279,0.612,3.332c0.438,1.05,1.138,2.016,1.924,2.894
		c0.875,0.789,1.748,1.403,2.797,1.842C175.655,542.517,176.703,542.781,177.928,542.781 M177.951,570.234
		c1.139,0,2.279-0.263,3.334-0.701c1.052-0.439,2.017-1.05,2.806-1.928c1.666-1.667,2.63-3.86,2.63-6.141
		c0-2.368-0.964-4.561-2.631-6.228c-1.612-1.655-3.872-2.467-6.137-2.466c-2.295,0-4.596,0.833-6.229,2.466
		c-1.665,1.667-2.543,3.861-2.543,6.228c0,2.281,0.876,4.474,2.543,6.141c0.878,0.875,1.753,1.488,2.807,1.928
		C175.672,569.969,176.724,570.234,177.951,570.234 M216.015,330.701c-10.893,0-19.755,8.862-19.755,19.756v133.37h-50.757
		c-21.677,0-39.313,17.636-39.313,39.313v49.198c0,21.677,17.635,39.313,39.312,39.313H458.77c21.675,0,39.31-17.636,39.31-39.313
		v-49.198c0-21.677-17.635-39.313-39.31-39.313H235.769v-133.37C235.769,339.563,226.907,330.701,216.015,330.701L216.015,330.701z"
		/>
</g>
</svg>
