<svg xmlns="http://www.w3.org/2000/svg" width="349.605" height="450.426"><path fill="#31587F" stroke="#31587F" stroke-miterlimit="10" stroke-width="7" d="M113.825 177.46c4.91 0 8.771 3.945 8.771 8.771v144.354h184.7c15.612 0 28.325 12.717 28.325 28.328v49.198c0 15.609-12.716 28.327-28.325 28.327H43.311c-15.61 0-28.328-12.718-28.328-28.327v-49.198c0-15.611 12.718-28.328 28.329-28.328h61.741V186.232c0-4.826 3.946-8.772 8.772-8.772m0-10.984c-10.893 0-19.755 8.862-19.755 19.756v133.37H43.313C21.636 319.602 4 337.239 4 358.915v49.198c0 21.677 17.636 39.313 39.313 39.313h263.983c21.675 0 39.31-17.636 39.31-39.313v-49.198c0-21.677-17.635-39.313-39.31-39.313H133.579v-133.37c0-10.894-8.861-19.756-19.754-19.756z"/><path fill="#FFF" stroke="#31587F" stroke-miterlimit="10" stroke-width="11" d="M214.334 143.987c1.118-15.798-3.997-31.073-14.403-43.062-10.404-11.986-24.733-19.106-40.525-20.219-6.771-.481-11.932-6.426-11.453-13.195.479-6.775 6.424-11.935 13.195-11.454 22.392 1.582 42.691 11.825 57.37 28.736 14.679 16.913 21.97 38.454 20.386 60.844-.247 3.471-1.843 6.325-4.262 8.424-2.321 2.014-5.464 3.274-8.938 3.033-6.768-.484-11.85-6.337-11.37-13.107z"/><path fill="#FFF" stroke="#31587F" stroke-miterlimit="10" stroke-width="11" d="M290.613 136.475c-.325 3.379-1.849 6.324-4.266 8.421-2.321 2.016-5.543 3.183-8.936 3.036-6.772-.479-11.933-6.425-11.455-13.195 3.848-53.197-36.404-99.571-89.695-103.336-6.77-.478-11.853-6.332-11.373-13.103.479-6.773 6.427-11.936 13.195-11.454 66.665 4.709 117.158 62.88 112.53 129.631zM163.493 153.208c.429-6.074-1.517-11.883-5.469-16.436-3.951-4.551-9.429-7.294-15.423-7.632-6.851-.568-11.933-6.423-11.452-13.195.479-6.771 6.424-11.932 13.195-11.454 25.946 1.922 45.546 24.503 43.718 50.367-.244 3.469-1.935 6.404-4.262 8.421-2.414 2.096-5.461 3.276-8.939 3.036-6.765-.484-11.847-6.337-11.368-13.107z"/><path fill="#31587F" stroke="#31587F" stroke-miterlimit="10" stroke-width="7" d="M61.478 378.913c1.135 0 2.272-.261 3.324-.7 1.048-.438 2.011-1.053 2.798-1.842.872-.875 1.485-1.841 1.922-2.894.438-1.05.698-2.19.697-3.335 0-1.141-.259-2.28-.697-3.333-.438-1.14-1.049-2.015-1.925-2.895-1.606-1.609-3.827-2.55-6.125-2.55-.58 0-1.165.061-1.745.185-.525.089-1.05.265-1.662.438-.523.264-.962.528-1.487.878-.434.264-.873.703-1.31 1.053-.787.877-1.487 1.755-1.924 2.895-.438 1.054-.612 2.192-.612 3.333 0 1.139.174 2.279.612 3.332.438 1.05 1.138 2.016 1.924 2.894.875.789 1.748 1.403 2.797 1.842 1.14.436 2.189.699 3.413.699M61.502 406.366c1.139 0 2.278-.263 3.334-.701 1.052-.438 2.017-1.05 2.806-1.928 1.666-1.667 2.63-3.86 2.63-6.141 0-2.368-.964-4.562-2.631-6.229-1.612-1.655-3.872-2.467-6.137-2.466-2.295 0-4.597.833-6.229 2.466-1.665 1.667-2.543 3.861-2.543 6.229 0 2.28.876 4.474 2.543 6.141.878.875 1.753 1.488 2.808 1.928 1.139.437 2.191.701 3.419.701"/></svg>