<svg xmlns="http://www.w3.org/2000/svg" viewBox="4.199 209.005 420.94 356.101"><path fill="#FFF" d="M156.47 365.64l-87.5 51.5s-31.5 5-42-6.5-10-47-10-47l86.5-125s33.5-21 51-20 55.5 28.5 57 39 110 57.5 110 57.5 38-4.5 50 0 40 40.5 42 59-46 162-46 162-13 17-29.5 17.5-40-19-41-26.5-14-100.5-14-100.5l-126.5-61z"/><path fill="#666" d="M379.708 307.871c-17.389-8.201-36.852-9.789-55.307-4.588l-99.399-46.876c-7.727-17.549-21.33-31.556-38.72-39.757-35.442-16.715-77.152-5.295-99.306 27.149-7.682 10.217-74.689 109.873-77.974 116.842-11.835 25.093-1.045 55.14 24.049 66.976 15.978 7.535 34.317 6.149 49.176-3.69 8.573-4.732 56.198-33.679 74.81-45.314l116.303 54.852c2.887 22.011 10.791 76.795 12.628 86.548 1.858 17.726 12.452 32.756 28.431 40.29 25.094 11.834 55.141 1.045 66.976-24.049 2.571-5.454 37.804-123.832 40.523-134.379 11.002-37.764-6.715-77.275-42.19-94.004zm-55.552 231.742c-8.767-4.135-14.558-12.483-15.477-22.329-.04-.408-.101-.816-.177-1.223-1.451-7.091-11.473-76.43-13.244-91.594-.456-3.921-2.904-7.332-6.479-9.018l-127.664-60.208c-3.575-1.686-7.765-1.405-11.08.739-12.818 8.272-72.693 44.644-79.098 48.047-.364.192-.717.405-1.054.636-8.185 5.557-18.309 6.402-27.076 2.267-13.691-6.457-19.574-22.842-13.274-36.222 4.051-7.397 69.191-104.74 75.763-113.216.154-.195.294-.392.436-.599 15.745-23.253 45.52-31.477 70.795-19.558 13.401 6.319 23.649 17.505 28.849 31.499 1.041 2.803 3.138 5.081 5.843 6.356l107.465 50.681c2.7 1.275 5.799 1.439 8.621.466 14.102-4.892 29.25-4.1 42.651 2.22 25.275 11.921 37.87 40.123 29.943 67.064-.068.236-.132.474-.184.712-2.174 9.651-35.948 121.238-39.201 130.537-6.585 13.423-22.796 19.14-36.358 12.743z"/><path fill="#666" d="M334.073 380.504c1.41-1.263 2.599-2.826 3.458-4.646.858-1.82 1.307-3.729 1.384-5.622.077-1.891-.218-3.771-.848-5.524-.629-1.752-1.598-3.393-2.859-4.802-1.262-1.41-2.826-2.598-4.646-3.456-7.281-3.435-15.974-.316-19.41 6.969-3.433 7.284-.316 15.976 6.97 19.412 1.822.858 3.729 1.306 5.625 1.385 1.892.08 3.77-.219 5.522-.85 1.759-.642 3.392-1.606 4.804-2.866zm-11.072-8.019c-1.565-.738-2.243-2.616-1.503-4.188.741-1.573 2.615-2.246 4.188-1.506 1.573.742 2.246 2.617 1.506 4.188-.742 1.573-2.622 2.246-4.191 1.506zm26.893 22.777c-.629-1.753-1.597-3.393-2.858-4.803-1.263-1.409-2.827-2.597-4.646-3.456-7.282-3.434-15.974-.315-19.409 6.97-3.435 7.281-.316 15.974 6.969 19.41 1.821.858 3.729 1.308 5.623 1.387 1.894.078 3.771-.22 5.522-.85 1.753-.631 3.394-1.597 4.803-2.858 1.41-1.262 2.6-2.826 3.458-4.646s1.308-3.729 1.386-5.623c.079-1.901-.219-3.777-.848-5.531zm-15.065 7.771c-1.565-.74-2.243-2.616-1.504-4.188.742-1.572 2.617-2.245 4.188-1.504 1.572.741 2.245 2.616 1.506 4.188-.741 1.572-2.621 2.242-4.19 1.504zm44.609-18.812c-.631-1.755-1.597-3.394-2.859-4.803-1.262-1.409-2.826-2.596-4.646-3.456-7.281-3.434-15.976-.316-19.41 6.97-3.435 7.282-.316 15.975 6.969 19.41 1.821.859 3.729 1.309 5.623 1.387 1.896.079 3.771-.22 5.525-.85 1.753-.63 3.393-1.597 4.802-2.858s2.598-2.826 3.456-4.646c.858-1.821 1.309-3.729 1.387-5.623.08-1.897-.213-3.775-.847-5.531zm-15.063 7.777c-1.566-.739-2.244-2.617-1.504-4.188.742-1.571 2.616-2.244 4.188-1.504 1.572.742 2.246 2.615 1.505 4.188-.741 1.571-2.62 2.243-4.189 1.504zm-14.913-19.996c1.82.858 3.729 1.309 5.623 1.387 1.895.078 3.771-.22 5.523-.85 1.753-.629 3.394-1.597 4.804-2.858 1.409-1.262 2.599-2.826 3.457-4.645.858-1.822 1.308-3.729 1.387-5.625.075-1.889-.221-3.771-.85-5.523-.63-1.752-1.598-3.394-2.858-4.803-1.263-1.409-2.828-2.599-4.647-3.457-7.28-3.434-15.974-.316-19.41 6.971-3.428 7.28-.311 15.969 6.971 19.403zm7.562-16.033c1.568.741 2.245 2.616 1.506 4.189-.743 1.572-2.618 2.239-4.188 1.499-1.567-.738-2.244-2.616-1.503-4.189.741-1.572 2.617-2.238 4.185-1.499zm-171.683-68.956l-12.412-5.853 5.854-12.413c1.347-2.854.122-6.264-2.733-7.61l-17.586-8.293c-2.855-1.346-6.266-.121-7.61 2.733L145 267.989l-12.411-5.854c-2.855-1.347-6.266-.122-7.611 2.733l-8.292 17.583c-1.347 2.854-.122 6.265 2.732 7.61l12.412 5.854-5.854 12.411c-1.347 2.855-.121 6.267 2.733 7.61l17.587 8.293c2.854 1.347 6.264.122 7.61-2.733l5.853-12.412 12.412 5.854c2.854 1.346 6.265.121 7.61-2.733l8.293-17.587c1.345-2.849.122-6.258-2.733-7.605zm-13.465 15.147l-12.414-5.854c-2.854-1.347-6.265-.122-7.61 2.733l-5.853 12.411-7.242-3.415 5.854-12.412c1.346-2.854.121-6.266-2.733-7.61l-12.413-5.854 3.416-7.242 12.413 5.855c2.854 1.345 6.264.121 7.61-2.734l5.854-12.413 7.241 3.417-5.854 12.411c-1.346 2.856-.122 6.265 2.733 7.61l12.412 5.854-3.414 7.243zm58.336 45.212l-10.346-4.876c-2.854-1.347-6.265-.122-7.61 2.733-1.346 2.854-.121 6.264 2.734 7.61l10.344 4.878c2.854 1.347 6.266.122 7.611-2.732 1.345-2.856.122-6.266-2.733-7.613zm31.03 14.634l-10.344-4.878c-2.854-1.347-6.266-.122-7.611 2.733-1.345 2.854-.121 6.266 2.733 7.61l10.345 4.878c2.857 1.347 6.266.122 7.611-2.733 1.347-2.854.123-6.263-2.734-7.61z"/></svg>