<svg xmlns="http://www.w3.org/2000/svg" viewBox="98.029 162.7 420.938 442.431"><path fill="#FFF" d="M131.97 199.14s78 34 121 39 118-2 118-2l22 255s-9 39-14 44-121.683 34.722-148 33c-107-7-122-46-122-46l23-323z"/><ellipse cx="249.97" cy="210.14" fill="#FFF" rx="116" ry="30" transform="rotate(8.21 249.950453 210.12271038)"/><g fill="#666"><path d="M204.679 603.064c-29.341 0-57.207-12.708-76.453-34.865-7.434-8.554-13.34-18.239-17.558-28.786-8.19-20.478-11.731-42.932-10.24-64.935l4.225-62.326 16.189-216.597c-1.157-2.93-1.49-5.898-.987-8.834 1.208-7.018 6.821-12.406 16.683-16.017 7.46-2.733 17.549-4.549 29.983-5.397 5.279-.359 10.993-.543 16.985-.543 21.734 0 46.89 2.351 72.746 6.796 33.229 5.713 64.01 14.262 86.667 24.071 11.437 4.947 20.339 10.027 26.463 15.097 8.092 6.698 11.583 13.652 10.378 20.668-.027.158-.058.315-.088.47l16.415 180.168 4.233 62.442c1.491 22.006-2.049 44.459-10.24 64.935-4.22 10.551-10.127 20.234-17.556 28.787-19.249 22.156-47.114 34.865-76.454 34.865l-91.391.001zm-70.648-53.356c1.905 2.809 3.979 5.507 6.2 8.063 16.224 18.676 39.715 29.388 64.45 29.388h91.393c24.734 0 48.226-10.712 64.448-29.388 2.601-2.991 4.997-6.178 7.158-9.513-52.807 12.388-90.679 17.76-125.912 17.907l-1.446.003c-34.276.001-67.272-5.093-106.291-16.46zm-9.924-19.653c44.521 14.166 79.329 20.216 116.225 20.216l1.369-.003c36.375-.152 76.814-6.298 135.061-20.535 6.364-17.425 8.952-35.646 7.697-54.179l-3.657-53.93c-55.25 6.811-95.377 9.723-133.823 9.723-38.15 0-77.416-2.973-127.033-9.627l-3.649 53.835c-1.269 18.649 1.36 36.981 7.81 54.5zm-3.036-124.229c49.993 6.738 87.742 9.617 125.904 9.617 37.909 0 77.649-2.901 132.573-9.689L365.056 246.64c-.643.267-1.301.524-1.976.771-7.46 2.732-17.549 4.548-29.984 5.396-5.277.359-10.991.543-16.983.543-21.733 0-46.889-2.351-72.747-6.795-33.228-5.713-64.007-14.263-86.668-24.071-8.43-3.649-15.504-7.381-21.089-11.121l-14.538 194.463zm15.99-213.898c.828.993 1.939 2.072 3.316 3.214 4.9 4.054 12.729 8.465 22.637 12.753 21.538 9.322 51.029 17.488 83.043 22.991 24.983 4.295 49.208 6.564 70.056 6.564h.006c5.627 0 10.976-.171 15.896-.505 10.773-.734 19.626-2.277 25.598-4.462 3.441-1.262 5.096-2.408 5.868-3.123l-.201-2.228c-.638-.932-1.826-2.327-4.033-4.154-4.896-4.052-12.724-8.463-22.639-12.752-21.538-9.323-51.029-17.489-83.045-22.992-24.984-4.295-49.207-6.564-70.05-6.564-5.633 0-10.985.171-15.906.505-10.779.736-19.631 2.278-25.597 4.464-2.236.817-3.703 1.589-4.643 2.194l-.306 4.095zm185.035 35.815c-4.384 0-7.949-3.566-7.949-7.949 0-4.384 3.566-7.949 7.949-7.949 4.384 0 7.95 3.565 7.95 7.949 0 4.383-3.566 7.949-7.95 7.949zm-141.231-23.538c-4.384 0-7.95-3.566-7.95-7.949 0-4.384 3.567-7.95 7.95-7.95 4.384 0 7.949 3.566 7.949 7.95.001 4.382-3.565 7.949-7.949 7.949z"/><path d="M183.508 166.833c20.914 0 45.909 2.212 72.396 6.766 34.043 5.854 64.48 14.529 86.196 23.931 10.816 4.68 19.78 9.673 25.966 14.793 5.789 4.792 10.946 11.23 9.66 18.727-.04.234-.087.466-.14.694l16.444 180.479 4.23 62.396c1.479 21.831-1.972 43.713-10.097 64.027-4.196 10.487-10.053 19.974-17.198 28.2-18.501 21.297-45.633 34.152-74.893 34.152h-91.393c-29.262 0-56.394-12.855-74.895-34.152-7.146-8.227-13.004-17.709-17.198-28.2-8.124-20.314-11.576-42.198-10.097-64.026l4.225-62.326 16.226-217.069c-1.083-2.54-1.541-5.266-1.048-8.151 1.29-7.494 8.299-11.843 15.355-14.427 7.539-2.762 17.655-4.474 29.415-5.275 5.244-.36 10.878-.539 16.846-.539m132.605 72.683c5.711 0 11.075-.173 16.042-.51 11.264-.769 20.125-2.374 26.168-4.583 4.563-1.672 6.502-3.291 7.298-4.349l-.331-3.635c-.766-1.258-2.176-2.942-4.726-5.053-4.958-4.104-12.774-8.575-23.136-13.058-20.634-8.932-50.116-17.391-83.517-23.132-26.002-4.47-50.318-6.595-70.399-6.595-5.711 0-11.079.172-16.045.511-11.264.769-20.125 2.372-26.168 4.584-2.913 1.066-4.759 2.114-5.919 3.009l-.438 5.87c.836 1.126 2.132 2.51 4.117 4.157 4.957 4.103 12.773 8.575 23.135 13.058 20.633 8.932 50.116 17.391 83.515 23.132 26.002 4.47 50.324 6.594 70.404 6.594M246.974 417.51c40.668 0 81.972-3.375 134.813-9.952L366.849 243.55c-1.455.729-2.965 1.365-4.479 1.92-7.539 2.763-17.656 4.475-29.414 5.276-5.243.356-10.877.537-16.846.537-20.912 0-45.909-2.212-72.396-6.767-34.043-5.853-64.479-14.529-86.196-23.931-9.559-4.138-17.673-8.52-23.698-13.014L118.865 407.61c48.951 6.653 88.225 9.9 128.109 9.9m.002 11.768c-40.182 0-79.786-3.244-128.945-9.902l-3.799 56.038c-1.299 19.155 1.53 38.357 8.29 56.305 43.634 13.955 79.505 20.619 117.81 20.619.46 0 .917-.001 1.377-.003 39.004-.164 80.951-7.207 136.611-20.856 6.691-17.878 9.493-36.992 8.2-56.064l-3.805-56.108c-53.046 6.585-94.694 9.971-135.739 9.971m125.039 115.833c-51.599 12.307-92.097 18.829-130.255 18.988-.479.003-.959.003-1.438.003-36.682 0-71.05-5.9-110.975-17.938 2.726 4.634 5.853 8.968 9.325 12.963 16.31 18.775 40.223 30.1 66.01 30.1h91.393c25.786 0 49.699-11.324 66.009-30.1 3.731-4.296 7.064-8.984 9.931-14.016m-191.15-354.74c3.248 0 5.884 2.634 5.884 5.883 0 3.248-2.634 5.884-5.884 5.884-3.249 0-5.885-2.636-5.885-5.884.001-3.249 2.636-5.883 5.885-5.883m141.231 23.538c3.25 0 5.884 2.634 5.884 5.883 0 3.248-2.634 5.884-5.884 5.884-3.248 0-5.883-2.636-5.883-5.884-.001-3.249 2.633-5.883 5.883-5.883M183.509 162.7c-6.04 0-11.801.185-17.128.547-12.628.861-22.908 2.718-30.554 5.519-10.606 3.883-16.666 9.808-18.007 17.605-.542 3.165-.229 6.352.928 9.492l-16.154 216.121-4.228 62.355c-1.513 22.309 2.078 45.076 10.383 65.842 4.304 10.763 10.331 20.645 17.916 29.375 19.64 22.608 48.073 35.574 78.014 35.574h91.393c29.938 0 58.373-12.966 78.014-35.574 7.581-8.728 13.609-18.611 17.915-29.375 8.305-20.761 11.896-43.531 10.384-65.843l-4.23-62.396-.003-.047-.006-.049-16.388-179.873c.016-.074.029-.148.04-.223 1.341-7.801-2.393-15.409-11.097-22.613-6.274-5.194-15.345-10.376-26.959-15.402-22.805-9.872-53.75-18.471-87.137-24.211-25.973-4.465-51.248-6.824-73.096-6.824zm-44.162 26.359c.805-.437 1.897-.942 3.371-1.482 5.785-2.118 14.44-3.62 25.028-4.342 4.875-.332 10.18-.501 15.764-.501 20.729 0 44.83 2.261 69.702 6.534 31.858 5.478 61.183 13.592 82.573 22.852 9.736 4.214 17.394 8.518 22.142 12.449 1.752 1.45 2.768 2.566 3.343 3.315l.05.542c-.792.537-2.154 1.286-4.42 2.117-5.79 2.117-14.444 3.618-25.027 4.34-4.874.332-10.179.5-15.76.5-20.732 0-44.835-2.259-69.705-6.534-31.857-5.478-61.182-13.592-82.573-22.852-9.731-4.212-17.389-8.517-22.142-12.449-1.111-.922-1.921-1.702-2.507-2.333l.161-2.156zm-16.07 214.977l14.136-189.063c5.158 3.172 11.339 6.322 18.465 9.406 22.807 9.873 53.754 18.473 87.138 24.212 25.971 4.466 51.247 6.826 73.095 6.826 6.039 0 11.8-.185 17.126-.547 12.331-.841 22.422-2.632 30.007-5.321l14.065 154.399c-53.808 6.603-92.975 9.431-130.335 9.431-37.569 0-74.759-2.804-123.697-9.343zm123.699 29.375c38.031 0 77.687-2.842 131.912-9.472l3.509 51.753c1.212 17.874-1.212 35.456-7.203 52.295-57.503 14.01-97.521 20.063-133.503 20.214l-1.359.003c-36.404 0-70.788-5.935-114.631-19.813-6.098-16.958-8.567-34.675-7.346-52.699l3.5-51.635c48.685 6.464 87.436 9.354 125.121 9.354zm-6.654 134.824l1.456-.003c34.221-.144 70.889-5.187 121.147-16.746-1.26 1.694-2.582 3.341-3.964 4.931-15.831 18.224-38.753 28.676-62.888 28.676H204.68c-24.136 0-47.061-10.452-62.89-28.676-.869-1.002-1.718-2.026-2.54-3.071 36.717 10.268 68.301 14.889 101.072 14.889zm-59.457-381.997c-5.523 0-10.017 4.493-10.017 10.016s4.494 10.016 10.017 10.016 10.016-4.493 10.016-10.016-4.493-10.016-10.016-10.016zm141.231 23.538c-5.523 0-10.016 4.494-10.016 10.016s4.494 10.016 10.016 10.016 10.016-4.493 10.016-10.016c0-5.522-4.494-10.016-10.016-10.016z"/></g><path fill="#666" d="M118.696 544.14l73 16 56 1 53-5 64-12 12 2s-45 46-57 51-68 4-68 4l-60-2s-37-10-45-16-28-39-28-39z"/><g fill="#666"><path d="M481.698 350.249c-.396 0-.795-.036-1.185-.109-1.731-.333-3.217-1.312-4.191-2.755-.96-1.423-1.309-3.13-.982-4.808.396-2.313 3.645-22.866-1.992-45.251-7.59-30.153-27.052-49.943-57.844-58.825-3.452-.998-5.456-4.591-4.47-8.007.788-2.74 3.352-4.654 6.229-4.654.617 0 1.234.086 1.834.26 44.604 12.854 61.009 44.311 66.916 68.438 6.546 26.736 2.092 50.235 2.044 50.465-.548 3.026-3.226 5.246-6.359 5.246z"/><path d="M417.262 227.217c.479 0 .967.066 1.451.207 85.022 24.497 68.21 116.247 67.994 117.303-.445 2.446-2.606 4.146-5.01 4.146-.311 0-.621-.028-.936-.086-2.785-.538-4.607-3.199-4.072-5.944.153-.971 15.35-83.698-60.807-105.663-2.689-.777-4.306-3.609-3.529-6.302.641-2.219 2.68-3.661 4.909-3.661m.001-2.755c-3.49 0-6.597 2.325-7.554 5.653-1.197 4.145 1.229 8.502 5.41 9.71 30.29 8.735 49.431 28.195 56.893 57.837 5.566 22.112 2.361 42.397 1.979 44.639l-.009.048c-.386 2.029.039 4.09 1.2 5.808 1.181 1.749 2.978 2.934 5.063 3.335.491.091.975.136 1.455.136 3.8 0 7.045-2.695 7.72-6.407.036-.175 4.55-23.98-2.067-51.008-3.813-15.574-10.55-29.054-20.025-40.069-11.823-13.745-27.922-23.624-47.849-29.365-.724-.213-1.469-.317-2.216-.317z"/></g><g fill="#666"><path d="M509.181 350.055c-.542 0-1.082-.068-1.609-.202-3.486-.888-5.607-4.429-4.728-7.895.526-2.803 4.875-28.063-2.362-55.521-9.352-35.479-33.111-58.877-70.62-69.546-1.671-.468-3.058-1.561-3.901-3.074-.84-1.507-1.04-3.25-.562-4.905.775-2.759 3.343-4.693 6.24-4.693.592 0 1.185.08 1.763.238 41.526 11.82 68.992 38.756 79.44 77.897 8.163 30.584 3.329 58.869 2.751 61.995l-.107.692c-.758 3.005-3.341 5.014-6.305 5.014z"/><path d="M431.64 205.595c.461 0 .931.061 1.399.19 99.583 28.345 82.612 130.685 81.2 138.313l-.114.729c-.588 2.309-2.662 3.851-4.944 3.851-.419 0-.844-.052-1.269-.16-2.763-.702-4.428-3.488-3.733-6.222l.026-.101c1.242-6.673 17.036-100.744-73.965-126.63-2.727-.765-4.292-3.583-3.517-6.274.632-2.241 2.67-3.696 4.917-3.696m0-2.754c-3.511 0-6.624 2.348-7.567 5.706-.576 1.994-.334 4.11.686 5.94 1.023 1.837 2.707 3.163 4.737 3.732 36.997 10.523 60.437 33.595 69.653 68.568 7.091 26.906 2.942 51.665 2.362 54.818l-.003.014c-1.066 4.201 1.501 8.493 5.724 9.568.636.162 1.292.245 1.947.245 3.596 0 6.728-2.438 7.615-5.926l.03-.126.021-.128.108-.691c.966-5.241 5.27-32.399-2.782-62.563-4.728-17.712-12.868-33.043-24.194-45.565-13.986-15.465-32.891-26.668-56.186-33.299-.719-.197-1.435-.293-2.151-.293z"/></g><g fill="#666"><path d="M454.385 345.783c-.378 0-.761-.032-1.136-.099-3.533-.626-5.907-3.988-5.295-7.494.032-.168 2.66-14.772-1.752-31.453-5.73-21.423-20.062-36.01-42.594-43.353-1.637-.517-2.982-1.655-3.783-3.202-.799-1.546-.947-3.299-.421-4.939.906-2.687 3.389-4.477 6.182-4.477.671 0 1.338.105 1.979.315 33.722 10.973 46.416 34.524 51.129 52.349 5.118 19.271 2.202 36.291 2.075 37.006-.541 3.097-3.226 5.347-6.384 5.347z"/><path d="M405.586 252.143c.516 0 1.036.08 1.55.248 31.989 10.409 45.137 32.141 50.226 51.394 5.054 19.028 2.169 35.744 2.051 36.413-.433 2.479-2.595 4.21-5.027 4.21-.297 0-.597-.026-.897-.079-2.792-.494-4.657-3.148-4.175-5.899.114-.588 2.67-15.225-1.778-32.044-4.437-16.582-15.765-35.271-43.499-44.31-2.671-.843-4.177-3.739-3.318-6.41.72-2.148 2.729-3.523 4.867-3.523m0-2.755c-3.386 0-6.393 2.168-7.48 5.395-.654 2.03-.473 4.159.494 6.031.97 1.876 2.604 3.257 4.604 3.888 22.037 7.182 36.065 21.447 41.669 42.393 4.306 16.282 1.76 30.667 1.733 30.808-.753 4.302 2.122 8.379 6.4 9.138.457.08.919.12 1.377.12 3.828 0 7.086-2.729 7.741-6.489.129-.722 3.095-18.031-2.102-37.596-4.798-18.153-17.721-42.139-52.034-53.305-.775-.253-1.583-.383-2.402-.383z"/></g></svg>