<svg xmlns="http://www.w3.org/2000/svg" viewBox="85.704 113.548 278.944 353.45"><path fill="#666" d="M259.116 459.313c-2.385 6.183-9.332 9.263-15.515 6.877L93.389 408.25c-6.184-2.386-9.263-9.332-6.878-15.515l104.726-271.502c2.385-6.184 9.332-9.263 15.515-6.878l150.213 57.941c6.183 2.385 9.262 9.331 6.877 15.515L259.116 459.313z"/><path fill="#FFF" d="M274.745 394.232l-12.758 33.49c-.726 1.898-2.877 2.849-4.763 2.129l-149.527-57.198c-1.92-.736-2.873-2.888-2.145-4.787l86.835-227.307c.726-1.899 2.881-2.855 4.775-2.13l149.557 57.244c1.904.729 2.864 2.855 2.136 4.754l-74.11 193.805zM163.354 400.333l33.801 12.933c2.791 1.068 4.895 3.197 6.042 5.737l.145.342c1.006 2.468 1.12 5.307.108 7.955l-1.001 2.614c-1.069 2.792-3.203 4.877-5.726 6.01-2.552 1.129-5.537 1.304-8.327.236l-33.802-12.932c-2.767-1.06-4.896-3.193-6.028-5.732-1.138-2.529-1.334-5.509-.266-8.302l1-2.613c1.068-2.793 3.204-4.879 5.714-6.014l.371-.142c2.457-.991 5.318-1.105 7.969-.092z"/><path fill="#666" d="M194.037 420.016l-33.801-12.931c-.814-.313-1.7-.304-2.457-.007l-.159.082c-.82.352-1.488 1.029-1.824 1.905l-1 2.615c-.335.875-.285 1.815.085 2.637.345.796 1.021 1.469 1.897 1.802l33.799 12.934c.876.335 1.828.285 2.651-.063.787-.378 1.467-1.042 1.802-1.916l1-2.614c.313-.819.282-1.701-.012-2.443l-.052-.186c-.378-.811-1.055-1.48-1.929-1.815z"/><path fill="#FFF" d="M252.135 152.104c-1.93-.738-2.882-2.88-2.155-4.781.728-1.9 2.864-2.852 4.792-2.113l44.522 17.077c1.897.727 2.854 2.858 2.128 4.762-.728 1.899-2.864 2.848-4.763 2.122l-44.524-17.067z"/><path fill="#666" d="M233.019 199.848c1.953-.614 4.024.469 4.641 2.425.62 1.942-.466 4.02-2.415 4.632l-41.786 12.969c-1.945.594-4.029-.502-4.646-2.445-.617-1.949.485-4.008 2.411-4.615l41.795-12.966zM230.469 218.761c1.955-.61 4.041.477 4.622 2.411.618 1.945-.465 4.019-2.416 4.632l-41.778 12.951c-1.951.609-4.028-.474-4.618-2.411-.618-1.945.464-4.019 2.409-4.612l41.781-12.971z"/></svg>