<svg xmlns="http://www.w3.org/2000/svg" viewBox="-7 -7 1041.692 292.229"><path fill="#FFF" d="M1023.537 280.212c-12.239-1.632-24.648-3.752-36.648-5.803-4.038-.689-8.075-1.38-12.112-2.053l-1.966-.327-28.702-73.878-29.327 68.187-2.72-.469c-9.079-1.566-18.193-2.513-27.008-3.428-6.302-.653-12.819-1.33-19.357-2.232l-4.589-.633 56.954-129.669L866.467-3.5h53.979l26.091 66.842L974.368-3.5h54.883l-56.349 135.178 56.443 149.308-5.808-.774zM-3.5-3.5h47.044l50.248 140.36V-3.5h50.511v265.343l-2.895.509c-9.329 1.639-18.927 2.608-28.209 3.547-6.271.634-12.755 1.289-19.228 2.151l-2.846.379-43.574-127.621v133.141l-3.134.329c-13.825 1.455-26.364 3.319-39.639 5.294L-3.5 280.8V-3.5zm182.69 0h126.727v50.241h-76.482v51.094c7.904-.045 17.346-.229 26.515-.407 10.412-.202 20.246-.393 27.82-.393h3.5v50.24h-3.5c-18.16 0-38.582 0-54.335.654v57.244c5.955-.391 11.911-.808 17.87-1.224 17.965-1.255 36.542-2.553 55.002-3.136l3.61-.114v48.464L179.19 259.178V-3.5zm654.959 261.557c-13.175-1.518-26.773-2.316-39.924-3.089l-5.608-.33V-3.5h49.433v262.006l-3.901-.449zm-78.734-6.199c-37.919-2.388-77.128-4.856-116.603-5.67l-3.428-.07V-3.5h50.24v201.965c16.909.454 34.01 1.509 50.58 2.53 6.586.406 13.136.811 19.626 1.175l3.304.185v49.738l-3.719-.235zM371.616 46.742h-44.859V-3.5H466.72l-.002 50.242h-44.862V245.65h-3.5c-14.316 0-29.121 0-43.105.536l-3.634.14V46.742zm115.935 196.475V-3.5h127.808v50.241h-78.375v48.133h59.188v50.239h-59.188v98.104h-49.433z"/><path fill="#666" d="M1024 0l-54.863 131.615L1024 276.742c-16.22-2.162-32.435-5.135-48.648-7.838l-31.078-79.994-31.617 73.51c-15.678-2.705-30.812-3.516-46.481-5.678l55.672-126.75L871.573 0h46.482l28.377 72.699L976.702 0H1024M834.549 0v254.58c-14.056-1.619-28.649-2.43-42.433-3.242V0h42.433M682.125 0v201.881c24.594.539 49.453 2.434 73.51 3.783v42.701c-38.646-2.434-77.293-4.863-116.75-5.676V0h43.24m-70.266 0v43.241h-78.375v55.133h59.188v43.239h-59.188v98.104h-42.433V0h120.808M463.22 0l-.002 43.242h-44.862V242.15c-14.594 0-29.188 0-43.239.539V43.242h-44.859V0H463.22M302.416 0v43.241h-76.482v58.105c16.757 0 42.431-.811 57.835-.811v43.24c-19.188 0-41.619 0-57.835.811v64.322c25.405-1.621 50.812-3.785 76.482-4.596v41.617l-119.727 9.461V0h119.727M140.803 0v258.904c-15.404 2.705-31.079 3.516-47.294 5.676L44.051 119.724v151.073C28.647 272.418 14.594 274.58 0 276.742V0h41.08l56.212 157.021V0h43.511m893.699-7h-62.468l-1.794 4.309-23.598 56.675-22.066-56.53L922.838-7h-61.476l3.684 9.525 49.23 127.297-54.51 124.105-3.726 8.483 9.178 1.267c6.597.91 13.143 1.589 19.474 2.246 9.16.951 17.813 1.849 26.774 3.396l5.439.938 2.182-5.071 24.857-57.793 24.883 64.047 1.442 3.714 3.931.655c4.032.673 8.064 1.361 12.097 2.051 12.032 2.056 24.474 4.182 36.778 5.821l11.617 1.549-4.145-10.963-53.88-142.525L1030.46 2.694 1034.502-7zM841.549-7h-56.433v264.938l6.588.389 2.308.136c13.105.77 26.656 1.565 39.736 3.072l7.801.898V-7zM689.125-7h-57.24v256.546l6.855.142c39.4.811 78.572 3.277 116.455 5.663l7.439.469v-56.774l-6.607-.371c-6.479-.363-13.153-.774-19.609-1.173-15.49-.955-31.441-1.938-47.293-2.437V-7zm-70.266 0H484.051v253.717h56.433v-98.104h59.188V91.374h-59.188V50.241h78.375V-7zM470.22-7H323.257v57.242h44.859v199.72l7.269-.278c13.917-.534 28.687-.534 42.971-.534h7V50.242h44.862v-7L470.22 0v-7zM309.416-7H175.69V262.966l7.551-.597 119.727-9.461 6.449-.51v-55.311l-7.221.229c-18.527.585-37.139 1.885-55.138 3.143-4.64.324-9.383.655-14.124.975V151.3c15.163-.524 33.975-.524 50.835-.524h7v-57.24h-7c-7.608 0-17.458.191-27.888.394-7.831.152-15.858.308-22.947.378V50.241h76.482V-7zM147.803-7H90.292v123.699L47.671-2.359 46.01-7H-7v291.855l8.026-1.188 4.272-.635c13.235-1.968 25.736-3.827 39.485-5.273l6.268-.66V161.891l35.833 104.951 1.856 5.436 5.693-.759c6.417-.854 12.874-1.507 19.117-2.138 9.345-.945 19.008-1.922 28.463-3.582l5.789-1.017V-7h.001z"/></svg>