<svg xmlns="http://www.w3.org/2000/svg" viewBox="-4.994 -5 384.997 95.878"><path fill="#FFF" d="M132.677 88.378c-25.027 0-45.389-20.383-45.389-45.438.001-25.055 20.363-45.44 45.39-45.44 25.03 0 45.394 20.385 45.394 45.441 0 25.055-20.364 45.437-45.395 45.437zm69.992-1.353c-7.882 0-14.6-6.071-15.626-14.121l-8.325-55.961c-1.305-8.524 4.585-16.535 13.13-17.845.792-.122 1.601-.185 2.399-.185 7.785 0 14.295 5.616 15.48 13.353L212 28.212l15.255-23.408.11.005c2.976-3.71 7.451-5.886 12.237-5.886 6.104 0 11.614 3.561 14.195 9.016l.111.007.551 1.577 7.144 20.998 11.34-22.839c2.667-5.407 8.064-8.769 14.081-8.769 2.446 0 4.801.561 6.995 1.667 7.725 3.895 10.871 13.348 7.015 21.073l-27.666 55.748c-2.898 6.015-8.308 9.621-14.458 9.621-6.819 0-12.704-4.342-14.991-11.061l-8.771-25.794-18.899 28.997c-3.259 4.997-8.209 7.861-13.58 7.861zM61.53 86.944c-4.929 0-9.567-2.396-12.407-6.408-.242-.341-.746-1.119-.746-1.119l.027-.018c-.837-1.238-3.886-5.973-16.476-25.544l-4.25 20.84c-1.44 7.096-7.682 12.247-14.841 12.247-1.154-.008-2.234-.12-3.221-.325-8.184-1.74-13.473-9.825-11.803-18.024L9.564 11.021C11.073 4 17.343-1.076 24.476-1.076c5.166 0 9.94 2.594 12.77 6.94l16.828 26.075 4.25-20.85c1.442-7.073 7.719-12.206 14.924-12.206 1.021 0 2.048.104 3.056.309C84.538.878 89.868 8.951 88.188 17.189L76.532 74.356c-1.266 7.265-7.581 12.588-15.002 12.588zm264.797-41.547c-3.464 0-6.282-2.822-6.282-6.291V11.461h-8.226c-3.467 0-6.287-2.822-6.287-6.29s2.82-6.29 6.287-6.29h32.626c.687.018 1.061.082 1.287.129 1.825.374 3.372 1.523 4.251 3.154h-.002c.073.137.203.39.312.647l7.545 19.147 7.527-19.094c.958-2.42 3.253-3.983 5.849-3.983.786 0 1.561.146 2.3.436 1.573.62 2.801 1.812 3.466 3.357.667 1.524.697 3.235.08 4.804-10.815 27.437-12.967 32.896-13.452 34.077l.016.006c-.927 2.293-3.246 3.834-5.771 3.834-.655-.006-1.077-.091-1.216-.118-2.038-.396-3.738-1.765-4.559-3.666-.257-.619-9.228-23.386-11.893-30.151h-7.569v27.645c-.001 3.47-2.822 6.292-6.289 6.292z"/><path fill="#666" d="M132.678 0c23.691 0 42.894 19.228 42.894 42.941 0 23.709-19.201 42.938-42.895 42.938-23.688 0-42.889-19.229-42.889-42.938C89.789 19.228 108.99 0 132.678 0m211.768 1.381c.488.013.718.064.792.079 1.084.222 2.015.905 2.545 1.889.009.015.118.222.207.433l9.849 24.995 9.854-24.995c.577-1.459 1.953-2.4 3.522-2.4.477 0 .94.088 1.391.264.938.37 1.679 1.087 2.078 2.016.406.929.421 1.961.051 2.902 0 0-13.425 34.056-13.428 34.061-.506 1.251-1.878 2.271-3.454 2.271h-.009c-.438-.004-.691-.066-.74-.074-1.205-.234-2.23-1.043-2.729-2.2-.271-.653-12.486-31.661-12.486-31.661h-11.771v30.145c0 2.09-1.701 3.791-3.788 3.791-2.09 0-3.782-1.701-3.782-3.791V8.961H311.82c-2.086 0-3.787-1.698-3.787-3.79 0-2.09 1.701-3.79 3.787-3.79h32.626m-271.199.001c.843 0 1.699.084 2.556.259 6.894 1.411 11.341 8.149 9.934 15.048L74.082 73.857c-1.049 6.016-6.271 10.587-12.553 10.587-4.297 0-8.112-2.168-10.366-5.353-.223-.314-.687-1.032-.687-1.032-.016-.015-19.771-30.724-19.771-30.724l-5.479 26.859c-1.24 6.107-6.512 10.247-12.391 10.247h-.079c-.846-.006-1.778-.095-2.633-.272C3.217 82.7-1.146 75.993.261 69.091l11.751-57.57c1.241-5.773 6.349-10.097 12.462-10.097 4.468 0 8.399 2.31 10.675 5.804l20.147 31.219 5.475-26.859c1.235-6.046 6.548-10.206 12.476-10.206m213.778.031c1.979 0 3.985.45 5.87 1.4 6.508 3.281 9.166 11.188 5.903 17.724L271.129 76.29c-2.371 4.92-6.707 8.232-12.219 8.232-5.938 0-10.763-3.896-12.625-9.366L235.86 44.498 214.154 77.8c-2.551 3.91-6.568 6.725-11.484 6.725-6.837 0-12.297-5.275-13.146-11.938l-8.332-56.012c-1.103-7.206 3.838-13.902 11.036-15.006.68-.105 1.354-.156 2.021-.156 6.389 0 12.004 4.671 13.009 11.231l3.207 22.505 18.104-27.778.021.001c2.371-3.584 6.414-5.948 11.016-5.948 5.766 0 10.669 3.717 12.476 8.904l.015.001 9.078 26.684 14.012-28.219c2.303-4.676 6.987-7.381 11.838-7.381M132.678-5C113.976-5 97.744 5.787 89.864 21.473l.772-3.786C92.592 8.1 86.387-1.296 76.806-3.257c-1.175-.239-2.372-.36-3.559-.36-8.388 0-15.694 5.975-17.373 14.207l-3.026 14.84L39.352 4.517c-3.304-5.074-8.861-8.093-14.876-8.093-8.304 0-15.6 5.907-17.35 14.046l-.006.026-.005.025-11.751 57.57C-6.58 77.632-.424 87.038 9.085 89.06c1.167.243 2.418.373 3.639.382h.113c8.343 0 15.615-5.994 17.291-14.253l3.022-14.814 3.231 5.022c6.701 10.414 9.007 13.998 9.931 15.354l-.034.021s.544.84.805 1.207c3.307 4.674 8.708 7.464 14.447 7.464 8.614 0 15.947-6.157 17.465-14.653l5.885-28.868c1.543 25.049 22.392 44.956 47.797 44.956 25.443 0 46.317-19.96 47.809-45.058l4.084 27.455c1.209 9.268 8.981 16.249 18.099 16.249 6.231 0 11.944-3.277 15.672-8.993l16.095-24.692 7.116 20.927c2.639 7.75 9.452 12.757 17.358 12.757 7.124 0 13.368-4.124 16.71-11.034l27.656-55.729c2.012-4.03 2.377-8.469 1.352-12.542 1.592 2.263 4.222 3.744 7.191 3.744h5.726v25.145c0 4.848 3.939 8.791 8.782 8.791 4.846 0 8.788-3.943 8.788-8.791V13.961h3.367c3.397 8.623 11.036 28.009 11.273 28.581l.013.03.014.03c1.147 2.66 3.527 4.577 6.367 5.127l.013.003c.529.104 1.064.158 1.636.163h.053c3.534 0 6.785-2.169 8.09-5.397l-.024-.01c.688-1.671 3.172-7.973 13.468-34.091.863-2.195.82-4.587-.121-6.739-.917-2.133-2.635-3.8-4.825-4.664-1.047-.409-2.126-.613-3.225-.613-3.628 0-6.836 2.183-8.172 5.561l-5.203 13.198-5.197-13.192-.022-.055-.022-.054c-.104-.247-.261-.581-.413-.862h.001c-1.231-2.285-3.397-3.895-5.943-4.416-.326-.067-.846-.157-1.661-.179l-.067-.002H311.82c-4.846 0-8.787 3.943-8.787 8.79 0 .341.02.677.058 1.008-1.708-3.267-4.413-6.05-7.944-7.831-2.512-1.267-5.319-1.936-8.121-1.936-6.976 0-13.231 3.896-16.326 10.169l-8.663 17.448-5.209-15.311-1.072-3.151-.394-.027c-3.216-5.563-9.19-9.117-15.758-9.117-5.113 0-9.918 2.139-13.339 5.836l-.305-.014-1.581 2.395-10.842 16.634-1.33-9.337-.004-.025-.004-.026c-1.373-8.966-8.922-15.474-17.951-15.474-.927 0-1.863.072-2.783.214-9.902 1.519-16.73 10.807-15.216 20.704l1.325 8.905C170.784 8.013 153.221-5 132.678-5z"/></svg>