<?xml version="1.0" encoding="utf-8"?>
<!-- Generator: Adobe Illustrator 15.1.0, SVG Export Plug-In . SVG Version: 6.00 Build 0)  -->
<!DOCTYPE svg PUBLIC "-//W3C//DTD SVG 1.1//EN" "http://www.w3.org/Graphics/SVG/1.1/DTD/svg11.dtd">
<svg version="1.1" id="Layer_1" xmlns="http://www.w3.org/2000/svg" xmlns:xlink="http://www.w3.org/1999/xlink" x="0px" y="0px"
	 width="431.941px" height="586.377px" viewBox="66.375 60.045 431.941 586.377"
	 enable-background="new 66.375 60.045 431.941 586.377" xml:space="preserve">
<path fill="#FFFFFF" stroke="#666666" stroke-width="11" stroke-miterlimit="10" d="M299.111,516.54
	c5.96,5.081,12.182,7.761,19.324,1.869c-1.532-11.996,0.152-22.298,12.769-34.749l133.604,123.533
	c-42.241,31.773-83.896,44.782-127.542,22.817C178.789,550.283,62.31,348.534,72.495,171.427
	c2.803-48.786,34.894-78.355,83.535-99.044l40.177,177.467c-17.087,4.707-26.852,1.004-36.479-6.31
	c-8.667,3.239-9.454,9.967-8.042,17.669C190.939,347.793,243.742,439.256,299.111,516.54L299.111,516.54z M215.063,245.661
	L172.787,68.275c12.029-4.869,30.204-3.148,39.339,4.554l36.327,153.553C241.748,235.964,230.336,242.813,215.063,245.661z
	 M344.258,469.428l132.478,125.307c10.23-7.99,17.835-24.58,15.729-36.352L377.645,450.157
	C365.997,451.17,354.359,457.627,344.258,469.428L344.258,469.428z"/>
</svg>
