<?xml version="1.0" encoding="utf-8"?>
<!-- Generator: Adobe Illustrator 15.1.0, SVG Export Plug-In . SVG Version: 6.00 Build 0)  -->
<!DOCTYPE svg PUBLIC "-//W3C//DTD SVG 1.1//EN" "http://www.w3.org/Graphics/SVG/1.1/DTD/svg11.dtd">
<svg version="1.1" id="Layer_1" xmlns="http://www.w3.org/2000/svg" xmlns:xlink="http://www.w3.org/1999/xlink" x="0px" y="0px"
	 width="420.938px" height="323.315px" viewBox="0 219.346 420.938 323.315" enable-background="new 0 219.346 420.938 323.315"
	 xml:space="preserve">
<rect x="20.97" y="235.14" fill="#FFFFFF" width="377" height="238"/>
<path fill="#666666" d="M414.446,219.346H6.499c-3.591,0-6.499,2.969-6.499,6.625V471.54c0,3.658,2.908,6.626,6.499,6.626h407.945
	c3.586,0,6.494-2.968,6.494-6.626V225.971C420.94,222.315,418.031,219.346,414.446,219.346z M210.47,470.438
	c-7.029,0-12.726-5.699-12.726-12.728c0-7.027,5.698-12.725,12.726-12.725c7.025,0,12.726,5.699,12.726,12.725
	C223.196,464.738,217.5,470.438,210.47,470.438z M393.666,437.95H27.273V241.775h366.396V437.95H393.666L393.666,437.95z
	 M338.44,504.336c0,21.169-57.294,38.326-127.97,38.326c-70.677,0-127.971-17.157-127.971-38.326
	c0-5.403,3.742-10.554,10.488-15.217h234.965C334.701,493.783,338.44,498.931,338.44,504.336z"/>
</svg>
