<svg xmlns="http://www.w3.org/2000/svg" viewBox="9.723 86.446 420.941 560.844"><path fill="#FFF" d="M276.809 568.065c-3.268 5.766-36.736 12.708-42.682 9.339L30.087 466.213c-5.946-3.369-13.631-27.775-10.364-33.541l139.154-263.066c3.268-5.766 30.736-17.709 36.682-14.34L407.6 270.458c5.945 3.369 11.116 38.774 7.849 44.54l-138.64 253.067z"/><path fill="#666" d="M52.97 483.14l-13 33-14 31 5 16 17 16 28 20 27 11 27 9 22 13 15-1 19-15 20-38 8-12-85-46zM387.97 245.14l25-70-28-24-67-36-37-19-27 23-25 38 32 27 67 37z"/><g fill="#666"><path d="M155.847 644.083c-6.146 0-12.217-1.518-17.557-4.39L37.261 585.334c-18.304-9.852-25.183-32.757-15.334-51.061 8.771-16.303 15.159-31.333 20.004-47.092-27.633-18.043-37.108-54.051-21.468-83.121l120.441-223.854c11.013-20.466 32.364-33.18 55.723-33.18 8.814 0 17.37 1.781 25.475 5.297 11.867-14.329 21.462-28.4 29.29-42.948 6.546-12.168 19.385-19.727 33.504-19.727 6.146 0 12.217 1.518 17.555 4.391l100.367 54.004c8.738 4.702 15.163 12.657 18.09 22.399 2.926 9.743 1.95 19.922-2.752 28.661-7.829 14.547-14.283 30.307-19.702 48.105 27.636 18.039 37.112 54.047 21.472 83.122l-7.698 14.308c8.442 8.45 10.587 21.463 4.97 31.908l-22.079 41.035-.057.092c-5.407 8.624-14.382 13.771-24.005 13.771h-.001c-1.761 0-3.516-.175-5.251-.524l-66.319 123.262c-11.109 20.646-32.478 33.472-55.767 33.472-8.88 0-17.435-1.864-25.467-5.545-11.842 14.294-21.307 28.134-28.899 42.244-6.547 12.171-19.386 19.73-33.506 19.73zM58.198 496.124c-4.885 15.528-11.466 30.901-20.06 46.871-5.21 9.685-1.836 20.915 7.848 26.124l101.03 54.358c3.001 1.616 6.166 2.434 9.411 2.434 7.004 0 13.252-3.842 16.715-10.278 7.601-14.129 17.013-27.97 28.717-42.217L58.198 496.124zm138.278-330.796c-16.442 0-31.523 9.045-39.359 23.607L36.674 412.785c-5.651 10.502-6.916 22.557-3.563 33.942 3.383 11.487 11.118 20.974 21.782 26.71l168.383 90.6c6.39 3.44 13.632 5.257 20.942 5.257 15.612 0 29.924-7.854 38.09-20.702l-.559-.298 121.963-226.68c5.609-10.423 6.789-22.519 3.323-34.061-3.468-11.541-11.118-20.987-21.542-26.597l-167.72-90.242c-6.552-3.524-13.915-5.386-21.297-5.386zM375.86 412.235c1.239-.831 2.314-2.014 3.098-3.466l22.027-40.941c.644-1.196.949-2.585.934-4.022l-26.059 48.429zm6.332-173.962c4.871-15.426 11.728-31.398 20.409-47.535 2.516-4.675 3.104-9.907 1.653-14.736-1.451-4.829-4.824-8.872-9.499-11.388l-101.029-54.357c-2.999-1.613-6.165-2.433-9.409-2.433-7.002 0-13.253 3.842-16.716 10.278-7.825 14.544-17.354 28.603-29.071 42.874l143.662 77.297z"/><path d="M284.896 92.858c5.466 0 10.979 1.288 16.037 4.008l100.366 54.004c16.51 8.882 22.914 30.209 14.033 46.718-8.882 16.508-15.428 33.422-20.652 51.046 27.682 16.598 37.697 51.789 22.42 80.184l-8.882 16.508c8.841 7.311 11.481 19.803 6.153 29.707l-22.027 40.941c-4.731 7.545-12.729 12.268-21.289 12.268-2.273 0-4.589-.333-6.893-1.035l-67.504 125.461c-10.793 20.062-31.551 31.784-52.942 31.784-8.888 0-17.885-2.025-26.324-6.313-11.83 14.069-22.338 28.851-30.865 44.7-6.159 11.451-18.305 18.041-30.68 18.041-5.468 0-10.979-1.288-16.037-4.009L38.78 582.51c-17.167-9.237-22.913-30.209-14.031-46.717 8.882-16.509 15.732-32.406 20.957-50.029-27.681-16.602-37.696-51.79-22.419-80.185l120.441-223.853c10.813-20.097 31.442-31.495 52.899-31.493 8.859 0 17.862 1.944 26.369 6.022 11.828-14.071 22.338-28.854 31.219-45.36 6.16-11.447 18.306-18.037 30.681-18.037m99.217 150.09c5.227-17.624 12.787-34.842 21.313-50.689 6.04-11.226 2.074-24.428-9.151-30.468l-101.03-54.357c-3.541-1.905-7.28-2.815-10.928-2.815-7.914 0-15.403 4.282-19.539 11.966-8.882 16.507-19.391 31.29-31.22 45.359l150.555 81.004M244.218 572.5c17.167 0 33.932-9.165 42.537-25.162l-.66-.354 120.441-223.851c12.438-23.108 3.59-52.561-19.523-64.998l-167.72-90.242c-7.248-3.899-15.08-5.771-22.817-5.771-16.936 0-33.4 8.975-42.183 25.293L33.851 411.265c-12.435 23.108-4.248 52.204 19.524 64.995l168.382 90.6c7.113 3.828 14.826 5.64 22.461 5.64m127.37-155.71c4.084 0 8.015-2.453 10.192-6.503l22.027-40.941c2.131-3.963 1.626-9.345-1.272-13.457l-32.688 60.75c.581.101 1.161.151 1.741.151M156.425 629.117c7.915 0 15.405-4.282 19.54-11.966 8.525-15.848 19.035-30.63 30.864-44.702L56.275 491.447c-5.225 17.623-12.431 34.181-20.958 50.029-6.039 11.226-2.073 24.429 9.15 30.468l101.031 54.357c3.539 1.907 7.279 2.816 10.927 2.816M284.896 86.446c-15.303 0-29.223 8.205-36.328 21.413-7.395 13.741-16.393 27.061-27.436 40.597-7.837-3.076-16.057-4.634-24.504-4.635-24.54-.002-46.974 13.357-58.547 34.866L17.638 402.541c-16.048 29.829-6.941 66.598 20.521 85.955-4.692 14.74-10.807 28.925-19.055 44.256-10.688 19.864-3.223 44.717 16.639 55.403l101.031 54.36c5.805 3.123 12.4 4.774 19.074 4.774 15.303 0 29.224-8.205 36.329-21.416 7.159-13.308 16.021-26.386 27.014-39.855 7.786 3.218 16.014 4.845 24.527 4.845 24.471 0 46.922-13.472 58.59-35.158l65.242-121.259c1.164.139 2.334.208 3.506.208 10.733 0 20.725-5.711 26.723-15.273l.112-.18.101-.188 22.028-40.941c5.911-10.988 4.165-24.498-3.887-33.922l6.615-12.293c16.051-29.834 6.94-66.611-20.532-85.964 5.212-16.675 11.368-31.523 18.763-45.267 5.107-9.492 6.174-20.538 2.999-31.102-3.173-10.563-10.148-19.193-19.641-24.302L303.971 91.219c-5.806-3.124-12.401-4.773-19.075-4.773zm-41.435 73.543c10.735-13.401 19.595-26.666 26.964-40.365 2.896-5.379 8.089-8.592 13.892-8.592 2.708 0 5.363.689 7.892 2.049l101.028 54.358c3.922 2.109 6.743 5.479 7.947 9.486s.703 8.375-1.404 12.295c-8.09 15.036-14.615 29.939-19.45 44.411l-136.869-73.642zm.757 406.099c-6.78 0-13.497-1.687-19.421-4.874l-168.384-90.6c-9.905-5.328-17.087-14.133-20.227-24.792-3.113-10.571-1.937-21.764 3.311-31.518L159.94 190.453c7.275-13.52 21.275-21.917 36.537-21.919 6.854 0 13.692 1.731 19.776 5.006l167.72 90.242c9.671 5.204 16.77 13.974 19.99 24.693 3.222 10.721 2.13 21.95-3.074 31.619l-120.441 223.85-3.045 5.659.215.114c-7.793 10.228-20.086 16.371-33.4 16.371zm-87.793 56.616c-2.708 0-5.362-.688-7.891-2.049l-101.03-54.357c-8.072-4.344-10.886-13.708-6.543-21.783 8.012-14.886 14.296-29.271 19.104-43.744l136.86 73.635c-10.708 13.352-19.446 26.399-26.608 39.709-2.896 5.378-8.088 8.589-13.892 8.589z"/></g><g fill="#666"><path d="M194.038 424.135c-1.448 0-2.779-.32-3.959-.954-2.121-1.14-4.355-3.585-4.572-6.416l-1.402-4.678c-14.116-41.174-20.424-67.26-19.243-79.633 1.115-11.246 6.192-21.271 14.297-28.239 7.385-6.347 16.742-9.843 26.351-9.843 1.231 0 2.472.059 3.691.174 16.247.215 30.806 11.295 35.808 26.827 3.471-.765 7.186-1.163 10.915-1.163 2.299 0 4.575.152 6.769.449l.147.02.145.033c9.12 2.106 18.045 7.938 23.875 15.598 6.146 8.727 8.915 19.341 7.86 29.984-1.489 11.705-7.088 21.486-15.78 27.645-13.422 10.741-53.629 22.238-76.433 28.145l-4.956 1.49c-1.236.374-2.417.561-3.513.561zm-2.578-106.414c-4.804 4.57-7.647 10.334-7.813 15.838-.38 6.241 1.38 23.416 17.124 69.737 50.397-13.187 63.951-21.155 67.452-24.003l.177-.135c4.232-2.977 7.688-8.393 9.26-14.501.949-5.669-.601-11.891-4.261-17.09-3.018-4.284-7.19-7.001-13.127-8.54-.997-.127-2.035-.191-3.08-.191-4.527 0-9.295 1.168-13.786 3.375l-.238.117-.257.077c-.101.035-.175.093-.244.133-.433.248-1.235.712-2.332.712-.265 0-.526-.027-.781-.079h-.104c-3.978 0-8.421-2.741-9.209-7.981-.802-6.288-3.2-11.957-6.766-16.035-1.184-1.256-3.583-2.548-5.336-3.49-3.727-2.006-6.327-2.6-9.83-2.995-.649-.047-1.401-.075-2.141-.075-5.469 0-10.147 1.628-14.708 5.126z"/><path d="M205.507 297.579c1.175 0 2.352.058 3.518.173 16.098.149 30.169 11.977 33.729 27.515 4.12-1.236 8.682-1.848 13.166-1.848 2.149 0 4.281.142 6.337.421 8.327 1.924 16.557 7.203 22.044 14.414 5.791 8.226 8.183 18.026 7.223 27.728-1.319 10.362-6.296 19.606-14.521 25.399-12.032 9.704-48.593 20.683-75.306 27.601l-5.075 1.524c-.938.282-1.801.424-2.586.424-.917 0-1.731-.191-2.441-.572-1.323-.711-2.948-2.438-2.899-4.114l-1.522-5.076c-8.947-26.102-20.59-63.02-19.123-78.406.964-9.702 5.276-19.301 13.196-26.11 6.966-5.993 15.663-9.073 24.26-9.073m-6.809 109.569c39.559-10.221 63.983-19.218 71.549-25.366 5.484-3.86 9.037-10.464 10.554-16.457 1.219-7.011-.918-14.121-4.777-19.604-3.862-5.484-9.143-8.325-15.138-9.849-1.218-.167-2.451-.244-3.69-.244-5.213 0-10.523 1.405-15.199 3.705-.81.242-1.199.711-1.658.711-.117 0-.237-.031-.372-.102-.168.017-.341.024-.513.024-2.58 0-5.514-1.778-6.039-5.254-.814-6.396-3.308-12.847-7.521-17.669-1.626-1.727-4.269-3.146-6.248-4.213-3.962-2.131-6.959-2.894-10.973-3.348-.85-.064-1.683-.097-2.501-.097-6.265 0-11.629 1.894-16.796 5.893-5.177 4.875-8.729 11.481-8.931 18.184-.658 10.716 4.987 35.044 18.253 73.686m6.811-115.982c-10.376 0-20.477 3.772-28.441 10.618-8.732 7.51-14.201 18.284-15.396 30.342-1.225 12.85 5.12 39.336 19.396 81.001l1.278 4.258c.453 3.88 3.321 7.063 6.214 8.619 1.653.888 3.495 1.337 5.479 1.337 1.409 0 2.901-.234 4.433-.696l4.957-1.489c28.081-7.275 64.2-18.129 77.438-28.652 9.389-6.686 15.431-17.229 17.02-29.714l.012-.09.009-.09c1.129-11.406-1.839-22.789-8.36-32.05l-.067-.098-.072-.095c-6.361-8.36-15.73-14.475-25.704-16.78l-.288-.065-.294-.04c-2.336-.316-4.758-.478-7.199-.478-2.98 0-5.96.24-8.829.706-6.146-15.363-21.106-26.095-37.719-26.369-1.281-.116-2.58-.175-3.867-.175zm-11.962 28.994c3.978-3.013 7.883-4.359 12.622-4.359.614 0 1.254.024 1.903.069 3.108.359 5.305.872 8.532 2.608 1.451.782 3.605 1.941 4.55 2.892 3.099 3.598 5.191 8.617 5.896 14.151l.01.074.011.072c1.049 6.961 6.908 10.637 12.214 10.712.349.052.7.079 1.051.079 1.844 0 3.183-.71 3.827-1.079l.182-.055.479-.233c3.995-1.966 8.388-3.047 12.371-3.047.842 0 1.673.047 2.476.142 5.05 1.347 8.589 3.65 11.11 7.23 3.148 4.473 4.507 9.772 3.742 14.579-1.386 5.261-4.424 10.053-7.967 12.545l-.181.127-.17.14c-2.561 2.081-14.563 9.692-63.355 22.628-14.681-43.654-16.359-59.793-16.005-65.578l.005-.101.003-.101c.136-4.551 2.634-9.574 6.694-13.495z"/></g><g fill="#666"><path d="M311.292 264.96c-1.462 0-2.865-.34-4.06-.982l-48.863-26.289c-4.167-2.241-5.983-8.302-3.743-12.468 1.52-2.828 4.9-4.727 8.407-4.727 1.46 0 2.864.338 4.058.981l48.863 26.29c4.165 2.243 5.983 8.3 3.745 12.467-1.518 2.826-4.897 4.728-8.407 4.728z"/><path d="M263.034 223.699c.901 0 1.778.188 2.54.6l48.863 26.29c2.639 1.423 3.859 5.483 2.438 8.124-1.012 1.88-3.362 3.039-5.584 3.039-.901 0-1.778-.188-2.539-.6l-48.864-26.289c-2.639-1.42-3.858-5.482-2.438-8.125 1.012-1.88 3.363-3.039 5.584-3.039m0-6.413c-4.726 0-9.135 2.517-11.23 6.414-3.078 5.721-.672 13.731 5.046 16.81l48.863 26.291c1.658.893 3.588 1.366 5.577 1.366 4.729 0 9.137-2.519 11.234-6.416 3.073-5.719.668-13.729-5.047-16.809l-48.865-26.29c-1.659-.894-3.587-1.366-5.578-1.366z"/></g><path fill="#666" d="M183.49 489.22c-3.963-2.132-9.04-.604-11.173 3.357-2.132 3.963-.605 9.038 3.357 11.171 3.963 2.132 9.04.607 11.173-3.355 2.13-3.962 1.266-8.687-3.357-11.173zm-22.451-12.08c-3.962-2.131-9.04-.604-11.171 3.355-2.133 3.966-.607 9.042 3.355 11.173 3.963 2.132 9.04.609 11.171-3.354 2.132-3.963.608-9.042-3.355-11.174zm-23.111-12.434c-3.962-2.132-9.041-.607-11.172 3.355-2.132 3.965-.605 9.042 3.355 11.173 3.965 2.132 9.044.607 11.173-3.355 2.131-3.962 1.267-8.687-3.356-11.173z"/></svg>