<svg xmlns="http://www.w3.org/2000/svg" viewBox="17.016 186.984 420.94 285.799"><path fill="#FFF" d="M358.47 356.14s7.5 30 7 40.5-8 41.5-8 41.5l63 25s14-49 11.5-71.5-11.5-62.5-11.5-62.5l-62 27zM290.97 273.64s25.5 17 33.5 26 25 34 25 34l62.5-26.5s-30-47.5-38-54-57.5-39.5-57.5-39.5l-25.5 60z"/><path fill="#666" d="M282.872 277.817c28.804 13.292 50.958 35.45 64.251 64.258l73.109-31.02c-22.218-46.588-59.757-84.13-106.341-106.345l-31.019 73.107zm15.508-4.428l22.154-53.178c35.447 19.946 63.251 46.743 83.187 84.402l-49.955 21.946c-13.292-22.153-33.232-42.092-55.386-53.17zM30.309 322.126c-8.862 24.377-13.293 48.743-13.293 75.332 0 26.582 4.431 50.951 13.293 75.325l73.109-31.02c-6.646-13.293-8.861-28.801-8.861-44.306 0-15.515 2.215-31.023 8.861-44.31l-73.109-31.021zm6.646 15.511l53.174 22.157c-4.432 11.074-6.65 24.37-6.65 37.663s2.219 26.582 6.65 39.874l-53.174 19.942c-6.646-19.942-8.862-39.881-8.862-59.816 0-19.939 2.216-39.881 8.862-59.82zm314.596 15.511c6.646 13.286 8.864 28.794 8.864 44.31 0 15.505-2.219 31.013-8.864 44.306l73.112 31.02c8.862-24.374 13.293-48.743 13.293-75.325 0-26.589-4.431-50.955-13.293-75.332l-73.112 31.021zm13.296 6.647l53.174-22.157c6.643 19.938 8.854 39.878 8.854 59.82 0 19.936-2.212 39.874-8.854 59.816l-53.174-19.942c4.428-13.292 6.643-26.581 6.643-39.874s-2.216-26.589-6.643-37.663zm-137.36-172.811c26.588 0 50.955 4.428 75.324 13.292l-31.013 73.113c-13.296-6.643-28.804-8.865-44.312-8.865-15.505 0-31.014 2.223-44.31 8.865L152.16 200.28c24.368-8.868 48.738-13.296 75.327-13.296zm59.816 19.943L267.365 260.1c-13.293-4.435-26.586-6.646-39.882-6.646-13.292 0-26.585 2.212-37.662 6.646l-22.154-53.174c19.936-6.646 39.878-8.858 59.816-8.858 19.939 0 39.882 2.212 59.82 8.859zm-178.39 135.221c13.293-28.804 35.45-50.952 64.251-64.244l-31.016-73.113c-46.585 22.215-84.127 59.754-106.345 106.338l73.11 31.019zm-4.43-15.508l-53.171-22.154c19.939-35.447 48.736-64.245 86.402-84.181l19.945 50.952c-22.161 13.287-42.096 33.229-53.176 55.383zm106.128-32.981h47.401l-23.702 57.567h40.632L193.684 452.8l23.699-74.488h-33.862l27.09-84.653z"/><path fill="#666" d="M43.178 307.799s20.299-39.581 42.627-57.849c22.328-18.267 51.759-37.552 51.759-37.552l25.371 60.895s-13.196 10.146-24.356 21.311c-11.167 11.17-34.1 32.04-34.1 32.04l-61.301-18.845zm51.762 49.727l-59.88-25.371s-15.225 36.538-13.192 68.005c2.025 31.46 12.175 64.952 12.175 64.952l63.94-27.402s-13.195-29.429-9.135-47.703c4.063-18.271 6.092-32.481 6.092-32.481z"/></svg>