<svg xmlns="http://www.w3.org/2000/svg" viewBox="26.913 151.684 408.733 408.737"><path fill="#FFF" d="M101.97 374.14s-69.519-17.044-67-78c2.5-60.5 67-80 94-77 1.491.166 6-2 6-2s32-60 98-60c0 0 100 17 105 94l20.5-5s69.87 1.506 68.5 70c-1 50-55 60.5-55 60.5l-270-2.5z"/><path fill="#666" d="M70.705 414.443h87.587v29.197H70.705v-29.197zm0 58.392h87.587v29.195H70.705v-29.195zm116.782-58.392h87.588v29.197h-87.588v-29.197zm0 58.392h87.588v29.195h-87.588v-29.195zm0 58.391h87.588v29.195h-87.588v-29.195zm116.781-116.783h87.587v29.197h-87.587v-29.197zm0 58.392h87.587v29.195h-87.587v-29.195zM231.281 169.44c23.023 0 44.552 7.488 62.261 21.656 17.299 13.839 29.469 33.354 34.268 54.947l3.955 17.798 17.687-4.424c4.91-1.229 9.549-2.389 13.208-2.389 30.971 0 55.231 24.262 55.231 55.233s-24.261 55.232-55.231 55.232H114.499c-18.556 0-36.064-7.289-49.302-20.528-13.237-13.238-20.528-30.749-20.528-49.304s7.29-36.065 20.528-49.303 30.747-20.528 49.302-20.528c2.367 0 7.292 0 8.984.549l13.684 4.561 7.268-12.46c18.365-31.482 51.642-51.04 86.846-51.04m0-17.756c-43.794 0-81.746 24.815-102.183 59.852-4.379-1.459-10.219-1.459-14.599-1.459-48.172 0-87.586 39.416-87.586 87.587 0 48.172 39.414 87.588 87.586 87.588h248.16c40.873 0 72.987-32.115 72.987-72.988s-32.114-72.988-72.987-72.988c-5.84 0-11.677 1.458-17.518 2.919-11.676-52.556-58.389-90.511-113.86-90.511z"/><path fill="#666" d="M269.585 299.121c-1.461 1.459-2.921 1.459-2.921 0v-14.6c0-21.895-10.219-36.494-21.896-36.494v70.069c0 20.437-16.058 36.495-36.494 36.495s-36.494-14.598-36.494-35.034 16.058-36.494 36.494-36.494c2.92 0 4.379 0 7.299 1.458v-89.046c0-8.759 5.84-14.597 14.598-14.597s14.596 5.84 14.596 14.597c0 2.921 1.46 7.299 7.299 10.218 14.598 8.761 29.198 16.061 29.198 43.796-.001 20.438-7.3 39.413-11.679 49.632z"/></svg>