<svg xmlns="http://www.w3.org/2000/svg" viewBox=".26 85.535 420.68 386.958"><path fill="#FFF" d="M29.97 100.14h379v277h-379z"/><path fill="#666" d="M381.897 85.535H39.306C17.78 85.535.26 103.055.26 124.586v229.417c0 21.531 17.52 39.046 39.046 39.046h154.305c7.235 18.804 47.995 44.957 47.995 44.957v34.487h103.282v-79.444h37.009c21.527 0 39.043-17.515 39.043-39.046V124.586c0-21.535-17.516-39.051-39.043-39.051zm-1.848 281.62h-35.161v-74.551c0-16.341-24.226-16.341-24.226 0v23.842c0 2.644-6.823 2.644-6.823 0v-41.059c0-16.337-24.448-16.337-24.448 0v41.059c0 2.644-6.823 2.644-6.823 0v-55.998c0-16.328-24.448-16.328-24.448 0v55.998c0 2.644-6.823 2.644-6.823 0V202.813c0-16.295-24.448-16.295-24.448 0v147.9c0 2.866-7.708 2.866-7.708 0v-57.516c0-19.831-26.646-18.951-26.646 0v73.961H41.146V111.429H380.04v240.726l.009 15zm20.458-119.734c-4.403 0-7.973-3.569-7.973-7.969 0-4.403 3.569-7.977 7.973-7.977 4.407 0 7.977 3.569 7.977 7.977 0 4.399-3.57 7.969-7.977 7.969z"/></svg>