<?xml version="1.0" encoding="utf-8"?>
<!-- Generator: Adobe Illustrator 15.1.0, SVG Export Plug-In . SVG Version: 6.00 Build 0)  -->
<!DOCTYPE svg PUBLIC "-//W3C//DTD SVG 1.1//EN" "http://www.w3.org/Graphics/SVG/1.1/DTD/svg11.dtd">
<svg version="1.1" id="Layer_1" xmlns="http://www.w3.org/2000/svg" xmlns:xlink="http://www.w3.org/1999/xlink" x="0px" y="0px"
	 width="416.938px" height="437.884px" viewBox="13.954 117.454 416.938 437.884"
	 enable-background="new 13.954 117.454 416.938 437.884" xml:space="preserve">
<path fill="#FFFFFF" d="M108.97,403.14v-233h251v209c0,0-4-20-15-18s-26-14-30-16s-30,10-31,6s-3-88-3-88s-10-15-20-14s-22,12-22,12
	l-10,173c0,0-3,3-13-8s-36-39-42-38s-26,15-26,15H108.97z"/>
<path fill="#666666" d="M384.249,368.721c-3.451-0.111-6.897,0.311-10.221,1.249c-4.769-10.06-14.247-17.073-25.26-18.699
	c-4.613-0.644-9.307-0.326-13.79,0.938c-4.501-9.577-13.309-16.427-23.699-18.432c-5.551-1.038-11.274-0.668-16.646,1.07
	l-1.696-63.952c-0.426-16.091-12.332-29.56-28.251-31.955c-17.811-2.374-34.173,10.139-36.549,27.949
	c-0.146,1.09-0.236,2.188-0.271,3.291l-4.462,153.928l-0.984-1.027l-12.182-20.841c-10.418-17.626-30.357-27.323-50.654-24.636
	c-12.701,1.7-21.623,13.378-19.923,26.082c0.358,2.674,1.181,5.268,2.429,7.659l46.863,90.549
	c4.356,8.336,11.02,15.245,19.191,19.904l1.251,0.624l23.476,9.73l0.848,0.312c3.637,1.193,6.51,4.016,7.766,7.631l2.452,7.097
	c2.057,5.809,8.434,8.85,14.244,6.79c5.722-2.025,8.774-8.258,6.868-14.022l-2.454-7.096c-3.485-10.084-11.419-18.001-21.511-21.466
	l-22.314-9.282c-4.192-2.533-7.619-6.159-9.908-10.489l-46.949-90.597c-0.145-0.248-0.145-0.554,0-0.804
	c0.113-0.275,0.373-0.465,0.669-0.491c11.443-1.578,22.717,3.855,28.606,13.79l12.495,21.422c0.216,0.387,0.456,0.76,0.715,1.117
	c8.524,11.29,23.654,18.476,36.062,10.266c3.013-1.992,4.876-5.318,4.999-8.927l4.775-166.467
	c0.166-5.642,4.874-10.082,10.516-9.915c0.379,0.012,0.757,0.043,1.132,0.097c5.137,0.85,8.907,5.28,8.926,10.488l2.319,87.428
	c0.181,6.161,5.322,11.008,11.479,10.825c4.484-0.131,8.455-2.938,10.076-7.12c1.904-5.093,7.201-8.069,12.54-7.051
	c5.362,1.303,9.082,6.176,8.926,11.691v2.409c-0.008,6.163,4.979,11.164,11.144,11.174c3.243,0.005,6.327-1.402,8.451-3.854
	c2.488-2.882,6.272-4.295,10.041-3.749c5.604,1.146,9.576,6.153,9.417,11.87v2.32c-0.009,6.162,4.979,11.165,11.143,11.173
	c3.243,0.006,6.328-1.401,8.451-3.854c2.204-2.617,5.512-4.04,8.926-3.838c6.145,0.627,10.77,5.876,10.622,12.05v71.852
	c0,21.153-13.389,37.353-19.459,43.335c-3.983,4.05-7.029,8.926-8.926,14.282l-2.633,7.407c-2.33,5.704,0.404,12.216,6.108,14.55
	c5.705,2.33,12.217-0.403,14.55-6.107c0.139-0.338,0.26-0.685,0.364-1.035l2.634-7.407c0.816-2.294,2.126-4.382,3.838-6.115
	c9.64-9.863,25.794-30.616,25.794-58.953V403.08C416.681,384.846,402.46,369.743,384.249,368.721L384.249,368.721z"/>
<path fill="#666666" d="M362.47,328.153c6.163,0,8.157-4.995,8.157-11.155V175.477c0-6.163-4.996-11.155-11.157-11.155H110.684
	c-6.162,0-11.156,4.994-11.156,11.155v218.684c0,6.162,1.996,11.155,8.156,11.155c6.163,0,8.156-4.995,8.156-11.155v-213.57h238.473
	v136.406C354.313,323.158,356.308,328.153,362.47,328.153z"/>
<path fill="#666666" d="M366.941,117.459H77.908c-34.9-0.371-63.514,23.583-63.954,58.481v211.758
	c0.44,34.898,29.053,62.852,63.953,62.481h47.493c6.163,0,11.158-2.996,11.158-9.157c0-6.163-4.996-9.156-11.158-9.156H73.908
	c-22.577,0.374-41.199-17.59-41.638-40.166V175.94c0.438-22.575,19.061-40.539,41.638-40.167h297.235
	c22.578-0.373,41.199,17.592,41.639,40.167v173.591c0,6.163,2.995,11.156,9.157,11.156s8.953-4.996,8.953-11.156V175.94
	C430.454,141.042,401.841,117.088,366.941,117.459z"/>
<path fill="#666666" d="M65.866,253.042c-6.163,0-11.157,4.996-11.157,11.157v41.415c0,6.163,4.996,11.157,11.157,11.157
	c6.163,0,11.155-4.996,11.155-11.157v-41.415C77.023,258.038,72.029,253.042,65.866,253.042z"/>
</svg>
