<?xml version="1.0" encoding="utf-8"?>
<!-- Generator: Adobe Illustrator 15.1.0, SVG Export Plug-In . SVG Version: 6.00 Build 0)  -->
<!DOCTYPE svg PUBLIC "-//W3C//DTD SVG 1.1//EN" "http://www.w3.org/Graphics/SVG/1.1/DTD/svg11.dtd">
<svg version="1.1" id="Layer_1" xmlns="http://www.w3.org/2000/svg" xmlns:xlink="http://www.w3.org/1999/xlink" x="0px" y="0px"
	 width="416.219px" height="289.055px" viewBox="4.721 253.318 416.219 289.055"
	 enable-background="new 4.721 253.318 416.219 289.055" xml:space="preserve">
<path fill="#FFFFFF" d="M33.97,263.14c0,0-31,53-17,109s49,92,63,99s67,12,77,4s38-33,38-33l20,24c0,0,48,51,58,56s29,9,48,5
	s49-20,58-33s31-62,34-87s-8-89-15-87s-41,9-49,12c0,0-109,23-112,12s2-32,2-32l-4-25c0,0-83,13-103,8S33.97,263.14,33.97,263.14z"
	/>
<path fill="#666666" d="M122.481,491.618c-5.162,0-10.323-0.431-15.484-0.86c-44.302-5.592-76.131-32.259-91.185-77.421
	C1.188,370.754,4.198,321.72,7.209,296.344c3.011-22.796,7.742-34.41,17.205-40c12.043-6.882,25.377-0.86,43.012,6.452
	c16.345,7.311,36.99,15.913,64.519,19.354c27.527,3.441,49.894-0.431,67.528-3.011c18.496-3.01,33.119-5.591,43.012,3.872
	c7.742,7.741,9.894,20.215,7.313,43.012C245.064,366.454,221.837,491.618,122.481,491.618 M109.147,469.681
	c90.755,10.753,113.981-98.497,120.003-145.809c2.58-21.076-0.431-24.518-0.86-24.947c-2.151-2.15-15.484,0-24.947,1.721
	c-18.065,3.011-43.012,6.882-73.55,3.441c-30.538-3.872-53.765-13.765-70.539-21.076c-9.032-3.871-21.075-9.032-23.656-7.742
	c-0.431,0.431-4.301,3.011-6.881,24.086c-3.012,23.657-6.022,69.249,7.311,107.529C48.071,443.875,73.017,464.951,109.147,469.681"
	/>
<path fill="#666666" d="M78.188,370.324c8.172,0.86,15.484-5.16,16.345-13.333c0.86-8.603-4.732-15.915-12.475-17.205
	c-8.171-0.86-15.483,5.162-16.344,13.335C64.425,361.721,70.015,369.034,78.188,370.324 M150.877,378.927
	c8.173,0.86,15.484-5.161,16.345-13.334c0.86-8.603-4.731-15.914-12.473-17.205c-8.173-0.86-15.484,5.162-16.345,13.333
	C137.114,370.325,142.705,378.067,150.877,378.927 M111.737,426.24c21.937,2.58,41.722-10.323,42.582-14.625
	c0.431-4.301-18.495,3.871-40.86,1.291c-21.938-2.581-38.711-15.054-39.142-10.753C73.457,405.594,89.801,423.229,111.737,426.24
	 M301.849,542.373c-38.28,0-79.109-41.636-100.615-76.046c-3.01-4.73-1.721-11.612,3.012-14.624
	c4.73-3.01,11.612-1.721,14.624,3.011c19.354,30.108,55.883,68.302,90.292,66.151c91.185-6.451,93.336-116.131,89.896-163.015
	c-1.291-20.646-5.162-23.655-5.593-23.655c-2.58-2.151-15.053,2.579-24.086,6.021c-17.205,6.451-59.86,15.054-90.399,17.205
	c-7.742,0.43-15.484,0.43-23.226,0.43c-6.022-0.43-10.323-5.161-10.323-11.183c0.431-6.022,5.592-10.323,11.183-10.323
	c6.881,0.431,13.764,0,20.646-0.43c27.957-2.15,68.032-9.463,84.808-15.915c17.635-6.45,31.828-11.612,43.013-4.301
	c9.031,6.021,13.764,17.636,15.053,40.001c3.011,41.721,3.44,177.639-109.68,185.811
	C307.871,541.941,304.86,542.373,301.849,542.373"/>
<path fill="#666666" d="M264.429,430.11c8.172-0.43,14.194-7.741,13.764-15.913c-0.43-8.173-7.742-14.625-15.484-14.195
	c-8.171,0.431-14.193,7.742-13.764,15.915C249.375,424.52,256.257,430.541,264.429,430.11 M337.549,424.95
	c8.173-0.43,14.194-7.742,13.764-15.914c-0.43-8.173-7.742-14.624-15.483-14.194c-7.742,0.431-14.194,7.742-13.765,15.914
	C322.494,419.358,329.377,425.38,337.549,424.95 M306.58,457.209c-22.366,1.721-39.141,18.065-38.711,22.366
	c0.431,4.302,17.636-7.313,40.001-8.603c22.366-1.721,40.86,7.312,40.431,3.011C347.871,469.681,328.947,455.918,306.58,457.209"/>
</svg>
