<?xml version="1.0" encoding="utf-8"?>
<!-- Generator: Adobe Illustrator 15.1.0, SVG Export Plug-In . SVG Version: 6.00 Build 0)  -->
<!DOCTYPE svg PUBLIC "-//W3C//DTD SVG 1.1//EN" "http://www.w3.org/Graphics/SVG/1.1/DTD/svg11.dtd">
<svg version="1.1" id="Layer_1" xmlns="http://www.w3.org/2000/svg" xmlns:xlink="http://www.w3.org/1999/xlink" x="0px" y="0px"
	 width="420.94px" height="377.68px" viewBox="21.047 183.866 420.94 377.68" enable-background="new 21.047 183.866 420.94 377.68"
	 xml:space="preserve">
<path fill="#FFFFFF" d="M285.97,196.14l-251,113l10,28c0,0,34,14,39,23c0,0,18.199,52.851,2,65c-2,1.5,14,32,14,32l47-21.5
	c0,0,20,21.5,22.5,31s2.5,46.5-5.5,50.5s13,33.5,13,33.5l252-119l-17-30.5c0,0-31.5-11.5-38.5-25.5s4-62.5,4-62.5l-14-31l-47.5,23
	c0,0-18-11.5-25-25.5s6.5-55,6.5-55L285.97,196.14z"/>
<g>
	<path fill="#666666" d="M417.04,393.934c-15.743-2.423-29.111-12.479-35.762-26.894c-6.646-14.415-5.615-31.112,2.762-44.656
		l2.659-4.298l-19.953-43.271l-45.826,21.132c-7.44-4.785-13.541-11.561-17.36-19.854c-6.645-14.42-5.613-31.112,2.763-44.656
		l2.658-4.298l-19.953-43.272L21.047,307.44l19.952,43.266l4.995,0.772c15.744,2.422,29.11,12.478,35.762,26.894
		c6.646,14.415,5.613,31.112-2.764,44.655l-2.657,4.299l19.953,43.271l45.825-21.132c7.441,4.785,13.541,11.562,17.362,19.854
		c6.645,14.42,5.612,31.11-2.765,44.655l-2.656,4.299l19.952,43.271l267.98-123.577l-19.952-43.268L417.04,393.934z
		 M357.547,299.774l7.941,17.227c-3.117,6.037-5.16,12.454-6.302,18.997l-14.063-30.493L357.547,299.774z M105.488,445.635
		l-7.941-17.226c9.308-18.045,9.859-39.327,1.291-57.917c-8.573-18.588-25.119-31.987-44.885-36.622l-7.941-17.227l166.043-76.563
		l3.688,7.997c1.323,2.867,4.162,4.561,7.124,4.561c1.099,0,2.216-0.233,3.278-0.719c3.928-1.815,5.65-6.47,3.835-10.402
		l-3.69-7.998l53.534-24.686l7.941,17.226c-9.313,18.045-9.863,39.325-1.29,57.917c8.568,18.588,25.115,31.986,44.884,36.622
		l7.939,17.226l-53.525,24.683l-5.894-12.788c-1.815-3.934-6.478-5.65-10.4-3.836c-3.93,1.816-5.65,6.468-3.836,10.401l5.9,12.788
		L105.488,445.635L105.488,445.635z M242.157,405.291c7.576,6.726,17.217,10.728,27.277,11.365
		c-6.047,8.063-9.261,17.992-9.064,28.124c-7.575-6.726-17.216-10.729-27.276-11.366
		C239.141,425.355,242.355,415.426,242.157,405.291z M363.485,453.45l-5.893-12.782c-1.816-3.935-6.479-5.656-10.401-3.835
		c-3.928,1.814-5.65,6.467-3.835,10.401l5.898,12.787l-166.043,76.564l-7.94-17.227c9.312-18.043,9.864-39.326,1.291-57.917
		c-3.704-8.031-8.966-15.02-15.262-20.822l70.143-32.346c-0.732,11.829-7.538,22.928-18.703,28.656
		c-0.448,0.192-0.905,0.338-1.356,0.543l0.061,0.134l4.407,9.561l0.061,0.136c0.449-0.207,0.857-0.459,1.291-0.677
		c17.007-6.992,36.716,0.597,44.489,17.448l2.805-1.295l6.889-3.176l2.807-1.296c-7.773-16.851-0.744-36.771,15.612-45.165
		c0.449-0.191,0.906-0.337,1.356-0.541l-0.061-0.137l-4.407-9.561l-0.061-0.136c-0.448,0.208-0.857,0.458-1.29,0.678
		c-11.609,4.771-24.468,2.741-33.938-4.377l57.523-26.524l4.236,9.19c1.322,2.867,4.164,4.56,7.123,4.56
		c1.099,0,2.216-0.234,3.278-0.719c3.934-1.816,5.65-6.469,3.835-10.402l-4.237-9.193l35.116-16.193
		c0.326,8.56,2.221,17.097,5.925,25.131c8.574,18.588,25.119,31.987,44.885,36.623l7.941,17.225L363.485,453.45L363.485,453.45z"/>
	<path fill="#666666" d="M337.899,397.952c-1.82-3.934-6.479-5.654-10.401-3.835c-3.934,1.815-5.65,6.469-3.836,10.4l9.19,19.935
		c1.322,2.865,4.162,4.56,7.123,4.56c1.098,0,2.216-0.234,3.276-0.72c3.93-1.815,5.65-6.467,3.836-10.401L337.899,397.952
		L337.899,397.952z M249.674,284.227l-9.19-19.934c-1.819-3.934-6.478-5.654-10.4-3.836c-3.93,1.816-5.65,6.47-3.836,10.402
		l9.189,19.934c1.322,2.867,4.164,4.561,7.124,4.561c1.098,0,2.215-0.235,3.277-0.718
		C249.769,292.815,251.49,288.156,249.674,284.227z M269.369,326.935l-9.189-19.935c-1.816-3.933-6.479-5.649-10.402-3.835
		c-3.934,1.814-5.65,6.468-3.834,10.401l9.19,19.933c1.322,2.868,4.162,4.561,7.122,4.561c1.099,0,2.218-0.234,3.279-0.72
		C269.463,335.527,271.184,330.868,269.369,326.935L269.369,326.935z M210.727,309.596l-0.065-0.142
		c-0.458,0.21-0.886,0.474-1.332,0.699c-17.54,7.21-37.861-0.619-45.878-17.999l-2.892,1.334l-7.106,3.272l-2.892,1.332
		c8.012,17.382,0.772,37.918-16.103,46.576c-0.462,0.197-0.937,0.348-1.398,0.561l0.066,0.141l4.547,9.854l0.065,0.141
		c0.459-0.21,0.886-0.474,1.333-0.697c17.539-7.212,37.861,0.617,45.878,17.997l2.892-1.333l7.105-3.273l2.892-1.332
		c-8.013-17.381-0.771-37.917,16.103-46.575c0.462-0.197,0.937-0.347,1.398-0.561l-0.066-0.141L210.727,309.596L210.727,309.596z
		 M183.59,352.78c-7.814-6.934-17.754-11.066-28.127-11.721c6.234-8.314,9.552-18.554,9.35-29.003
		c7.815,6.936,17.755,11.065,28.128,11.721C186.706,332.094,183.391,342.331,183.59,352.78z"/>
</g>
</svg>
