<svg xmlns="http://www.w3.org/2000/svg" viewBox="19.907 279.754 422.44 346.405"><circle cx="319.47" cy="542.64" r="67.5" fill="#FFF"/><path fill="#666" stroke="#666" stroke-miterlimit="10" stroke-width="2" d="M243.458 543.818c.05 3.087.317 6.112.724 9.091.063.462.136.91.212 1.371.461 2.943 1.071 5.825 1.862 8.645.031.105.051.212.082.323 1.756 6.131 4.283 11.916 7.452 17.29.199.344.411.683.623 1.024 1.447 2.36 3.006 4.64 4.695 6.821.227.292.437.6.67.893 1.895 2.373 3.916 4.638 6.083 6.765.33.325.691.617 1.03.936 1.807 1.709 3.698 3.319 5.66 4.846.677.524 1.358 1.036 2.053 1.536 1.698 1.222 3.442 2.356 5.236 3.435.09.056.159.136.253.192.254.148.51.298.771.448.324.212.648.418.986.61.02.015.036.025.057.038.014.007.025.007.044.02.068.035.136.063.206.099 2.773 1.536 5.679 2.857 8.653 4.035.276.106.55.2.824.305 2.396.917 4.848 1.702 7.345 2.369.583.157 1.179.312 1.771.456 2.239.534 4.521.966 6.832 1.296.654.093 1.303.226 1.964.298 2.848.33 5.736.542 8.679.542 2.985 0 5.917-.225 8.818-.568.217-.025.44-.077.665-.102 2.869-.365 5.683-.907 8.438-1.589.08-.02.162-.026.236-.043.044-.015.075-.036.112-.043 24.1-6.085 43.535-23.842 51.965-46.926.021-.056.063-.1.082-.156.049-.144.087-.293.137-.435.61-1.721 1.165-3.468 1.649-5.246.138-.497.263-.994.386-1.496.393-1.564.763-3.143 1.053-4.746.18-.973.305-1.952.449-2.931.169-1.203.368-2.387.482-3.609.219-2.312.349-4.621.349-6.933 0-2.438-.13-4.862-.369-7.283-.131-1.335-.368-2.638-.568-3.947-.155-1.021-.268-2.051-.468-3.068-.343-1.771-.799-3.498-1.267-5.224-.144-.525-.248-1.061-.404-1.584-.556-1.885-1.21-3.718-1.907-5.531-.126-.318-.207-.648-.33-.968-.013-.036-.043-.07-.063-.104-7.494-18.726-22.31-33.74-40.93-41.445-.044-.02-.075-.052-.113-.063-.292-.118-.604-.192-.897-.306-2.236-.892-4.526-1.672-6.864-2.344-.512-.144-1.029-.265-1.542-.401-2.289-.603-4.613-1.102-6.982-1.49-.36-.057-.724-.112-1.085-.168-2.614-.387-5.261-.644-7.949-.75-.081-.005-.162-.012-.249-.012-.955-.03-1.883-.137-2.838-.137-11.041 0-21.504 2.468-30.95 6.784-.037.02-.076.036-.113.049-2.476 1.136-4.87 2.408-7.189 3.797-.168.1-.348.176-.518.274-.057.032-.087.094-.143.127-21.486 13.169-35.908 36.802-35.908 63.793 0 .313.044.612.05.924 0 .014-.006.02-.006.03.004.061.014.118.014.186zm47.944-57.346c1.415-.682 2.844-1.311 4.301-1.878.2-.076.398-.142.598-.219 6.149-2.312 12.633-3.609 19.157-3.916.561-.025 1.122-.075 1.684-.086 1.096-.024 2.196.02 3.292.056.93.03 1.856.07 2.774.144.96.077 1.913.18 2.867.299 1.028.129 2.045.286 3.055.469.887.156 1.771.312 2.649.511.281.062.55.15.831.213l-16.966 16.967h-18.505l-6.174-12.347c.146-.07.294-.139.437-.213zm75.735 65.788l12.545-19.721c.113.68.226 1.359.313 2.045.106.787.225 1.566.293 2.353.175 1.897.292 3.803.292 5.743 0 2.779-.237 5.556-.625 8.326-.064.454-.136.909-.214 1.364-.44 2.743-1.028 5.474-1.845 8.182l-19.958 3.986 8.92-11.884c.021-.018.021-.05.029-.069l.25-.325zm-37.438 51.648c-2.559.491-5.083.754-7.589.929-.686.044-1.377.088-2.068.107-1.934.061-3.847.012-5.749-.107-.692-.044-1.397-.037-2.09-.106-2.475-.242-4.927-.631-7.345-1.173-.41-.086-.804-.212-1.209-.311-2.251-.556-4.483-1.217-6.678-2.021-.141-.05-.279-.106-.424-.155l18.213-15.178 20.109-4.021-5.17 22.036zm9.907-35.703l-22.725 4.542-3.181-15.906-1.06-5.3 18.444-13.83 21.652 12.991-13.13 17.503zm-33.851-27.086l-17.033-12.776 8.418-16.841h17.232l8.423 16.841-17.04 12.776zm-25.802-3.762l20.152 15.117 5.047 25.199-20.767 17.298c-.128-.079-.268-.155-.39-.235-3.817-2.513-7.308-5.419-10.432-8.643-.299-.306-.574-.635-.86-.947-1.278-1.373-2.5-2.787-3.646-4.265-.27-.344-.526-.698-.787-1.054-1.158-1.564-2.259-3.172-3.26-4.834-.157-.248-.305-.497-.455-.754-4.702-7.994-7.636-17.022-8.411-26.468-.008-.069-.008-.131-.014-.2l23.823-10.214zm63.563 62.26l4.801-20.438 23.432-4.684c-6.577 11.025-16.424 19.855-28.233 25.122zm31.383-82.791l-15.014 23.62-24.425-14.652-9.652-19.298 19.766-19.768c12.918 6.34 23.32 16.991 29.325 30.098zm-94.577-23.546l5.992 11.985-10.057 20.109-19.679 8.431c2.364-16.449 11.137-30.829 23.744-40.525z"/><path fill="#FFF" d="M36.672 339.703l-7.994 27.966 1.027 30.714 7.493 31.291 15.169 24.251 24.512 26.425 31.934 18.488 40.506-9.157 32.441-20.417 28.728-23.233 4.41-33.723-3.46-29.052-8.128-23.356-19.395-28.857-24.641-23.48-25.661-13.499-20.799-3.261-28.092 1.732-27.192 15.041-20.858 32.127z"/><path fill="#FFF" d="M245.637 608.14l-12.333-20.333-4.334-4.334-25.333-56.333s-3.333-36.333 0-48 6.333-24.333 6.333-24.333l1.667-14.334-25 19-22 17-23.667 13.334h-22.333l-10.667 7.333 29 15.333 17 6.667s15 7.333 18.667 12.333 16.667 23 16.667 23l10.333 21.667 9.667 17 2 6 3.666 8 2.667 8 2.667 4.667 12-6.334 13.333-5.333z"/><path fill="#666" stroke="#666" stroke-miterlimit="10" stroke-width="3" d="M69.548 295.686c-22.863 11.82-39.18 32.945-45.307 58.986-6.247 26.56-2.122 54.98 11.935 82.196 24.545 47.529 58.581 61.914 88.606 74.61 24.901 10.53 46.41 19.621 59.686 45.334l21.368 41.375c-.372 1.609-.157 3.284.606 4.754l9.26 17.936c.86 1.666 2.32 2.892 4.11 3.46 1.774.552 3.642.387 5.235-.45l20.732-10.707c1.624-.836 2.818-2.252 3.375-3.984.559-1.752.4-3.636-.468-5.368l-9.268-17.909c-.776-1.51-2.025-2.664-3.546-3.293l-21.354-41.328c-13.552-26.242-8.021-48.519-1.614-74.314 7.823-31.52 16.7-67.258-8.894-116.788-14.054-27.205-34.847-47.026-60.119-57.306-24.848-10.12-51.247-9.127-74.343 2.796zm70.301 7.127c22.875 9.309 41.767 27.389 54.638 52.297 23.738 45.948 15.739 78.146 8.008 109.279-6.641 26.74-12.905 51.993 2.503 81.82l22.707 43.951c.651 1.261 1.846 2.183 3.202 2.611l6.531 12.64-13.928 7.189-6.501-12.591c.387-1.244.378-2.837-.307-4.182l-22.699-43.942c-15.057-29.16-39.336-39.428-65.039-50.287-29.741-12.57-60.491-25.571-83.256-69.654-12.866-24.916-16.678-50.785-11.021-74.821 5.405-22.984 19.725-41.537 39.79-51.915 20.261-10.452 43.474-11.306 65.372-2.395z"/><path fill="#FFF" d="M434.97 462.025s4-88-76-147-150.266-21.128-155-11c-8 17.115 16.039 109.146 60 135 24 14.115 66 36 87 37s75.622-2 84-14z"/><path fill="#666" d="M44.183 361.514c-5.013 21.343-1.642 44.278 9.753 66.331 12.04 23.3 29.601 40.438 49.44 48.241 19.222 7.565 39.788 6.573 57.914-2.785 16.555-8.55 28.799-23.072 34.478-40.89.497-1.558.942-3.137 1.345-4.744 5.111-20.689 1.298-44.926-10.732-68.24-11.387-22.052-28.14-38.072-48.445-46.331-19.518-7.937-40.207-7.17-58.259 2.159-17.9 9.239-30.661 25.791-35.494 46.259zm80.114-41.453l-16.407 8.471-4.942-9.567c7.018-.976 14.207-.572 21.349 1.096zm49.8 39.417l-14.632 7.551-4.177-8.079-4.182-8.095 12.351-6.382c3.915 4.481 7.445 9.536 10.64 15.005zm-45.801-29.414l4.177 8.096 4.18 8.084-7.74 4.002-7.747 4.002-4.184-8.098-4.176-8.09 7.749-4.002 7.741-3.994zm9.913 80.507l-15.483 7.996-4.176-8.081-4.182-8.091 7.748-4.004 7.74-3.993 4.178 8.081 4.175 8.092zm-50.411-59.593l15.484-7.998 4.184 8.097 4.174 8.091-7.746 3.996-7.739 3.993-4.179-8.085-4.178-8.094zm3.757 30.633l4.177 8.08 4.182 8.094-15.479 7.994-8.359-16.18 7.747-3.999 7.732-3.989zm33.371 3.256l-7.748 4.003-7.74 3.994-4.178-8.081-4.181-8.094 7.746-3.996 7.739-3.993 4.178 8.08 4.184 8.087zm-62.136-20.97l15.479-7.994 4.179 8.085 4.183 8.094-7.747 3.996-7.735 3.997-4.179-8.079-4.18-8.099zm26.568 51.417l15.479-7.994 4.178 8.08 4.18 8.091-15.478 7.995-4.181-8.081-4.178-8.091zm21.63 41.871l-4.175-8.09-4.172-8.079 15.476-7.994 4.18 8.078 4.184 8.095-7.75 4.003-7.743 3.987zm25.021-12.911l-4.176-8.079-4.185-8.096 15.484-7.995 4.177 8.086 4.184 8.092-7.745 4.004-7.739 3.988zm40.494-20.911l-15.479 7.994-4.175-8.086-4.187-8.095 7.746-3.999 7.736-3.995 4.177 8.082 4.182 8.099zm-13.284-25.705l-7.744 3.998-7.74 3.997-4.178-8.081-4.182-8.09 15.479-7.994 4.179 8.082 4.186 8.088zm-13.284-25.708l-15.479 7.994-4.178-8.079-4.181-8.087 7.738-4.002 7.748-4.003 4.179 8.082 4.173 8.095zM73.35 346.372l-15.674 8.101c2.655-6.564 6.333-12.373 10.887-17.38l4.787 9.279zm-11.724 38.623l-8.455 4.375c-.7-6.725-.573-13.377.438-19.881l8.017 15.506zm-6.62 15.499l11.542-5.969 8.357 16.184-13.822 7.151c-2.614-5.777-4.688-11.578-6.077-17.366zm10.974 26.903l13.849-7.164 4.174 8.08 4.182 8.093-11.842 6.123c-3.757-4.563-7.219-9.64-10.363-15.132zm17.918 23.301l9.21-4.762 9.235 17.89c-6.511-3.233-12.717-7.653-18.445-13.128zm93.769-48.435l10.008-5.17c1.23 8.374 1.139 16.465-.237 24.068l-9.771-18.898zm7.714-16.055l-12.632 6.525-4.178-8.081-4.179-8.091 14.652-7.571c2.652 5.746 4.79 11.504 6.337 17.218zm-29.944-49.671l-9.259 4.791-8.542-16.549c6.39 3.024 12.342 6.963 17.801 11.758zm-63.203-14.955l6.13 11.869-15.484 7.999-6.069-11.77c2.445-1.8 5.013-3.468 7.782-4.897 2.487-1.283 5.047-2.305 7.641-3.201zm21 146.515l18.164-9.372 5.719 11.096c-7.891 1.048-15.973.516-23.883-1.724zm34.641-.821l-6.948-13.471 15.484-7.994 7.022 13.584c-2.251 1.587-4.578 3.093-7.063 4.38-2.762 1.425-5.616 2.539-8.495 3.501zm23.938-15.016l-5.866-11.367 18.94-9.781c-2.875 8.012-7.327 15.175-13.074 21.148zm-20.987 40.763c-1.799.927-2.91 2.771-2.907 4.8.011 2.019 1.159 3.859 2.958 4.758l27.142 13.59c1.535.772 3.342.751 4.859-.031 1.274-.66 2.217-1.793 2.648-3.137.083-.265.149-.532.189-.808l4.649-30.007c.309-1.991-.534-3.991-2.169-5.172-1.639-1.177-3.801-1.335-5.588-.412l-31.781 16.419zm25.428 10.27l-11.137-5.571 13.044-6.737-1.907 12.308zm265.628-62.681l-3.016-16.478c-17.604-95.588-109.26-158.892-204.888-141.509l-16.478 3.016c-15.469 2.842-25.713 17.676-22.894 33.148l3.02 16.501c17.613 95.578 109.265 158.868 204.883 141.485l16.502-3.02c15.457-2.851 25.687-17.678 22.871-33.143zm-11.521 2.108c1.665 9.105-4.356 17.838-13.46 19.516l-16.5 3.02c-10.065 1.829-20.276 2.716-30.506 2.649l49.128-71.131c3.684 9.541 6.471 19.407 8.322 29.468l3.016 16.478zM206.128 316.681c-1.665-9.105 4.355-17.841 13.459-19.516l16.499-3.019c10.752-1.971 21.675-2.865 32.604-2.665l-50.491 73.134c-4.054-10.15-7.085-20.683-9.052-31.435l-3.019-16.499zm17.72 60.401l58.499-84.731c56.625 5.9 106.206 40.579 131.174 91.748l-57.429 83.148c-56.686-5.222-106.675-39.306-132.244-90.165zm114.702 37.925c-1.847 2.664-5.502 3.326-8.162 1.482-2.665-1.846-3.327-5.5-1.484-8.163l6.665-9.617-15.849-10.946-6.661 9.642c-1.846 2.665-5.5 3.326-8.161 1.483-2.665-1.847-3.326-5.501-1.483-8.163l6.658-9.525-16.487-11.406-6.602 9.563c-1.847 2.664-5.501 3.325-8.164 1.482s-3.325-5.501-1.482-8.163l6.585-9.535-5.283-3.649c-2.666-1.837-3.342-5.488-1.503-8.157 1.838-2.669 5.491-3.343 8.158-1.505l5.282 3.648 6.604-9.563c1.846-2.664 5.501-3.325 8.163-1.482 2.663 1.847 3.325 5.501 1.482 8.165l-6.606 9.563 16.532 11.396 6.569-9.508c1.844-2.665 5.5-3.326 8.161-1.484 2.665 1.847 3.324 5.501 1.482 8.164l-6.572 9.486 15.849 10.945 6.568-9.511c1.381-2.923 4.87-4.177 7.794-2.795 2.925 1.381 4.178 4.869 2.797 7.795-.273.578-.638 1.109-1.084 1.568l-6.55 9.482 6.155 4.25c2.668 1.839 3.342 5.491 1.504 8.159-1.838 2.669-5.491 3.343-8.157 1.505l-6.155-4.25-6.563 9.644z"/></svg>